<svg width="21" height="22" viewBox="0 0 21 22" fill="none" xmlns="http://www.w3.org/2000/svg">
<path fill-rule="evenodd" clip-rule="evenodd" d="M13.708 15.885H7.89305C7.47905 15.885 7.14305 15.549 7.14305 15.135C7.14305 14.721 7.47905 14.385 7.89305 14.385H13.708C14.122 14.385 14.458 14.721 14.458 15.135C14.458 15.549 14.122 15.885 13.708 15.885ZM18.049 5.158C17.686 4.838 17.2731 4.476 16.781 4.021C16.5581 3.841 16.314 3.635 16.055 3.417C14.595 2.186 12.595 0.5 10.772 0.5C8.97005 0.5 7.09905 2.092 5.59605 3.371C5.31805 3.607 5.05805 3.829 4.79305 4.044C4.32705 4.476 3.91405 4.839 3.55005 5.16C1.16305 7.261 0.71405 7.812 0.71405 12.713C0.71405 21.5 3.25505 21.5 10.8001 21.5C18.3441 21.5 20.8861 21.5 20.8861 12.713C20.8861 7.811 20.437 7.26 18.049 5.158Z" fill="#2b7c9a"/>
</svg>
