<svg width="21" height="20" viewBox="0 0 21 20" fill="none" xmlns="http://www.w3.org/2000/svg">
<path fill-rule="evenodd" clip-rule="evenodd" d="M0.599991 10.015C0.599991 4.74712 4.80999 0 10.62 0C16.3 0 20.6 4.65699 20.6 9.98498C20.6 16.1642 15.56 20 10.6 20C8.95999 20 7.13999 19.5593 5.67999 18.698C5.16999 18.3876 4.73999 18.1572 4.18999 18.3375L2.16999 18.9384C1.65999 19.0986 1.19999 18.698 1.34999 18.1572L2.01999 15.9139C2.12999 15.6034 2.10999 15.2729 1.94999 15.0125C1.08999 13.4301 0.599991 11.6975 0.599991 10.015ZM9.29999 10.015C9.29999 10.7261 9.86999 11.2969 10.58 11.307C11.29 11.307 11.86 10.7261 11.86 10.025C11.86 9.31397 11.29 8.74311 10.58 8.74311C9.87999 8.7331 9.29999 9.31397 9.29999 10.015ZM13.91 10.025C13.91 10.7261 14.48 11.307 15.19 11.307C15.9 11.307 16.47 10.7261 16.47 10.025C16.47 9.31397 15.9 8.74311 15.19 8.74311C14.48 8.74311 13.91 9.31397 13.91 10.025ZM5.96999 11.307C5.26999 11.307 4.68999 10.7261 4.68999 10.025C4.68999 9.31397 5.25999 8.74311 5.96999 8.74311C6.67999 8.74311 7.24999 9.31397 7.24999 10.025C7.24999 10.7261 6.67999 11.2969 5.96999 11.307Z" fill="#2b7c9a"/>
</svg>
