<svg width="18" height="20" viewBox="0 0 18 20" fill="none" xmlns="http://www.w3.org/2000/svg">
<path fill-rule="evenodd" clip-rule="evenodd" d="M0.899994 8.31776C0.899994 3.71789 4.74388 0 9.39344 0C14.0561 0 17.9 3.71789 17.9 8.31776C17.9 10.6357 17.057 12.7876 15.6695 14.6116C14.1388 16.6235 12.2521 18.3765 10.1285 19.7524C9.6425 20.0704 9.20387 20.0944 8.67044 19.7524C6.53473 18.3765 4.64808 16.6235 3.13049 14.6116C1.74198 12.7876 0.899994 10.6357 0.899994 8.31776ZM6.59422 8.57675C6.59422 10.1177 7.85165 11.3297 9.39344 11.3297C10.9362 11.3297 12.2058 10.1177 12.2058 8.57675C12.2058 7.0478 10.9362 5.77683 9.39344 5.77683C7.85165 5.77683 6.59422 7.0478 6.59422 8.57675Z" fill="#2b7c9a"/>
</svg>
