<?xml version="1.0" encoding="UTF-8"?>
<!DOCTYPE svg PUBLIC "-//W3C//DTD SVG 1.1//EN" "http://www.w3.org/Graphics/SVG/1.1/DTD/svg11.dtd">
<svg xmlns="http://www.w3.org/2000/svg" version="1.1" width="1025px" height="1534px" style="shape-rendering:geometricPrecision; text-rendering:geometricPrecision; image-rendering:optimizeQuality; fill-rule:evenodd; clip-rule:evenodd" xmlns:xlink="http://www.w3.org/1999/xlink">
<g><path style="opacity:0.899" fill="#010101" d="M 280.5,19.5 C 282.989,19.2978 285.323,19.7978 287.5,21C 362.087,98.0987 436.754,174.932 511.5,251.5C 586.132,176.033 659.966,99.6995 733,22.5C 736.472,19.3415 740.306,18.8415 744.5,21C 756.842,34.0085 769.842,46.3419 783.5,58C 845.527,118.694 907.527,179.361 969.5,240C 972.5,242.333 975.5,244.667 978.5,247C 981.866,250.4 982.7,254.233 981,258.5C 905.955,335.044 831.455,412.044 757.5,489.5C 839.018,569.185 921.018,648.351 1003.5,727C 1006.93,730.042 1009.77,733.542 1012,737.5C 1012.67,907.167 1012.67,1076.83 1012,1246.5C 1011.67,1247.5 1011.33,1248.5 1011,1249.5C 922.706,1337.46 835.206,1425.29 748.5,1513C 745.5,1515 742.5,1515 739.5,1513C 736.133,1509.3 732.466,1505.96 728.5,1503C 656.667,1429.83 584.167,1357.33 511,1285.5C 437.167,1358 364,1431.17 291.5,1505C 288.203,1507.3 285.203,1509.96 282.5,1513C 281.128,1513.4 279.795,1513.9 278.5,1514.5C 277.205,1513.9 275.872,1513.4 274.5,1513C 187.434,1424.93 99.6005,1336.77 11,1248.5C 10.6667,1247.5 10.3333,1246.5 10,1245.5C 9.00405,1075.44 9.33739,905.445 11,735.5C 95.6736,653.498 180.507,571.332 265.5,489C 191.199,411.703 116.699,334.869 42,258.5C 39.8415,254.306 40.3415,250.472 43.5,247C 55.7999,236.369 67.7999,225.369 79.5,214C 140.837,152.663 202.837,91.9964 265.5,32C 270.421,27.5652 275.421,23.3985 280.5,19.5 Z M 282.5,29.5 C 358.504,108.17 434.837,186.504 511.5,264.5C 587.808,186.858 663.808,108.858 739.5,30.5C 817.135,104.467 894.135,179.134 970.5,254.5C 902.182,325.319 833.682,395.985 765,466.5C 757.951,474.045 751.117,481.712 744.5,489.5C 748.247,494.753 752.58,499.586 757.5,504C 839.637,582.469 921.47,661.303 1003,740.5C 1003.67,908.167 1003.67,1075.83 1003,1243.5C 916.211,1330.12 829.711,1416.79 743.5,1503.5C 667.167,1427.83 591.167,1351.83 515.5,1275.5C 600.348,1190.49 685.681,1105.99 771.5,1022C 774.07,1019.93 776.07,1017.43 777.5,1014.5C 689.707,925.874 601.374,837.707 512.5,750C 511.5,749.333 510.5,749.333 509.5,750C 420.767,837.4 332.767,925.4 245.5,1014C 246.764,1017.19 248.764,1019.85 251.5,1022C 337.139,1105.97 422.472,1190.31 507.5,1275C 431.333,1351.17 355.167,1427.33 279,1503.5C 193.19,1416.69 106.857,1330.02 20,1243.5C 19.3333,1075.5 19.3333,907.5 20,739.5C 106.828,656.672 192.995,573.172 278.5,489C 203.561,410.059 127.894,331.726 51.5,254C 128.395,178.936 205.395,104.103 282.5,29.5 Z M 510.5,761.5 C 595.839,845.172 680.505,929.505 764.5,1014.5C 680.526,1098.47 596.193,1182.14 511.5,1265.5C 426.707,1181.87 342.041,1098.04 257.5,1014C 299.833,971.667 342.167,929.333 384.5,887C 395.5,876.667 406.5,866.333 417.5,856C 447.333,824.833 477.833,794.333 509,764.5C 509.513,763.473 510.013,762.473 510.5,761.5 Z"/></g>
<g><path style="opacity:1" fill="#212121" d="M 323.5,66.5 C 326.719,68.5284 328.886,71.1951 330,74.5C 327.218,72.2295 325.051,69.5628 323.5,66.5 Z"/></g>
<g><path style="opacity:1" fill="#212121" d="M 386.5,131.5 C 389.395,133.202 391.228,135.536 392,138.5C 389.546,136.559 387.713,134.225 386.5,131.5 Z"/></g>
<g><path style="opacity:1" fill="#101010" d="M 866.5,149.5 C 866.897,148.475 867.563,148.308 868.5,149C 870.329,150.113 871.163,151.613 871,153.5C 869.629,151.959 868.129,150.625 866.5,149.5 Z"/></g>
<g><path style="opacity:1" fill="#212121" d="M 902.5,184.5 C 902.897,183.475 903.563,183.308 904.5,184C 905.833,185.333 907.167,186.667 908.5,188C 907.833,188.667 907.167,188.667 906.5,188C 905.295,186.624 903.962,185.458 902.5,184.5 Z"/></g>
<g><path style="opacity:1" fill="#212121" d="M 448.5,195.5 C 451.073,196.879 452.573,198.879 453,201.5C 450.873,199.886 449.373,197.886 448.5,195.5 Z"/></g>
<g><path style="opacity:1" fill="#212121" d="M 574.5,194.5 C 575.525,194.897 575.692,195.563 575,196.5C 573.333,198.167 571.667,199.833 570,201.5C 569.333,200.833 569.333,200.167 570,199.5C 571.707,197.963 573.207,196.296 574.5,194.5 Z"/></g>
<g><path style="opacity:1" fill="#101010" d="M 930.5,211.5 C 930.897,210.475 931.563,210.308 932.5,211C 934.329,212.113 935.163,213.613 935,215.5C 933.629,213.959 932.129,212.625 930.5,211.5 Z"/></g>
<g><path style="opacity:1" fill="#212121" d="M 967.5,247.5 C 967.56,246.957 967.893,246.624 968.5,246.5C 973.618,251.111 973.285,251.444 967.5,247.5 Z"/></g>
<g><path style="opacity:1" fill="#0f0f0f" d="M 49.5,249.5 C 50.2389,249.369 50.9056,249.536 51.5,250C 50,251.5 48.5,253 47,254.5C 47.0579,252.565 47.8912,250.898 49.5,249.5 Z"/></g>
<g><path style="opacity:1" fill="#212121" d="M 60.5,267.5 C 62.9635,269.461 65.2968,271.628 67.5,274C 64.1351,273.142 61.8018,270.975 60.5,267.5 Z"/></g>
<g><path style="opacity:1" fill="#0c0c0c" d="M 961.5,267.5 C 962.525,267.897 962.692,268.563 962,269.5C 959.667,271.833 957.333,274.167 955,276.5C 954.333,275.833 954.333,275.167 955,274.5C 957.372,272.297 959.539,269.963 961.5,267.5 Z"/></g>
<g><path style="opacity:1" fill="#0c0c0c" d="M 899.5,331.5 C 900.525,331.897 900.692,332.563 900,333.5C 897.667,335.833 895.333,338.167 893,340.5C 892.333,339.833 892.333,339.167 893,338.5C 895.372,336.297 897.539,333.963 899.5,331.5 Z"/></g>
<g><path style="opacity:1" fill="#212121" d="M 233.5,527.5 C 234.239,527.369 234.906,527.536 235.5,528C 234.234,529.983 232.568,530.983 230.5,531C 231.71,529.961 232.71,528.794 233.5,527.5 Z"/></g>
<g><path style="opacity:1" fill="#212121" d="M 865.5,604.5 C 865.897,603.475 866.563,603.308 867.5,604C 869.833,606.333 872.167,608.667 874.5,611C 873.833,611.667 873.167,611.667 872.5,611C 870.297,608.628 867.963,606.461 865.5,604.5 Z"/></g>
<g><path style="opacity:0.926" fill="#000000" d="M 573.5,815.5 C 578.224,821.227 583.558,826.227 589.5,830.5C 590.5,832.167 591.833,833.5 593.5,834.5C 594.833,837.833 597.167,840.167 600.5,841.5C 645.086,886.752 690.086,931.752 735.5,976.5C 741.556,983.558 748.222,989.891 755.5,995.5C 756.5,997.167 757.833,998.5 759.5,999.5C 760.833,1002.83 763.167,1005.17 766.5,1006.5C 768.628,1009.13 770.961,1011.63 773.5,1014C 740.965,1046.37 708.632,1078.87 676.5,1111.5C 673.5,1112.5 671.5,1114.5 670.5,1117.5C 668.833,1118.5 667.5,1119.83 666.5,1121.5C 662.564,1123.77 659.231,1126.77 656.5,1130.5C 620.5,1165.83 584.833,1201.5 549.5,1237.5C 543.892,1241.44 538.892,1246.11 534.5,1251.5C 526.854,1258.81 519.187,1266.15 511.5,1273.5C 502.479,1264.81 493.479,1256.15 484.5,1247.5C 480.441,1242.44 475.774,1238.1 470.5,1234.5C 469.167,1232.5 467.5,1230.83 465.5,1229.5C 464.833,1226.83 463.167,1225.17 460.5,1224.5C 428.194,1191.53 395.527,1158.86 362.5,1126.5C 356.777,1119.78 350.444,1113.78 343.5,1108.5C 312.554,1076.89 281.221,1045.55 249.5,1014.5C 252.833,1010.83 256.167,1007.17 259.5,1003.5C 301.221,962.446 342.554,921.113 383.5,879.5C 386.5,878.5 388.5,876.5 389.5,873.5C 391.833,871.833 393.833,869.833 395.5,867.5C 399.167,865.833 401.833,863.167 403.5,859.5C 404.833,858.833 405.833,857.833 406.5,856.5C 412.442,852.227 417.776,847.227 422.5,841.5C 452.132,812.368 481.632,783.035 511,753.5C 531.701,774.368 552.535,795.035 573.5,815.5 Z M 510.5,761.5 C 510.013,762.473 509.513,763.473 509,764.5C 477.833,794.333 447.333,824.833 417.5,856C 406.5,866.333 395.5,876.667 384.5,887C 342.167,929.333 299.833,971.667 257.5,1014C 342.041,1098.04 426.707,1181.87 511.5,1265.5C 596.193,1182.14 680.526,1098.47 764.5,1014.5C 680.505,929.505 595.839,845.172 510.5,761.5 Z"/></g>
<g><path style="opacity:1" fill="#0c0c0c" d="M 573.5,815.5 C 579.442,819.773 584.776,824.773 589.5,830.5C 583.558,826.227 578.224,821.227 573.5,815.5 Z"/></g>
<g><path style="opacity:1" fill="#0f0f0f" d="M 593.5,834.5 C 596.167,836.5 598.5,838.833 600.5,841.5C 597.167,840.167 594.833,837.833 593.5,834.5 Z"/></g>
<g><path style="opacity:1" fill="#0c0c0c" d="M 422.5,841.5 C 417.776,847.227 412.442,852.227 406.5,856.5C 411.224,850.773 416.558,845.773 422.5,841.5 Z"/></g>
<g><path style="opacity:1" fill="#0e0e0e" d="M 403.5,859.5 C 401.833,863.167 399.167,865.833 395.5,867.5C 397.833,864.5 400.5,861.833 403.5,859.5 Z"/></g>
<g><path style="opacity:1" fill="#0f0f0f" d="M 389.5,873.5 C 388.5,876.5 386.5,878.5 383.5,879.5C 385.167,877.167 387.167,875.167 389.5,873.5 Z"/></g>
<g><path style="opacity:1" fill="#212121" d="M 735.5,976.5 C 742.778,982.109 749.444,988.442 755.5,995.5C 748.222,989.891 741.556,983.558 735.5,976.5 Z"/></g>
<g><path style="opacity:1" fill="#0f0f0f" d="M 759.5,999.5 C 762.167,1001.5 764.5,1003.83 766.5,1006.5C 763.167,1005.17 760.833,1002.83 759.5,999.5 Z"/></g>
<g><path style="opacity:1" fill="#0c0c0c" d="M 259.5,1003.5 C 256.167,1007.17 252.833,1010.83 249.5,1014.5C 248.475,1014.1 248.308,1013.44 249,1012.5C 252.098,1008.89 255.598,1005.89 259.5,1003.5 Z"/></g>
<g><path style="opacity:1" fill="#0f0f0f" d="M 676.5,1111.5 C 674.833,1113.83 672.833,1115.83 670.5,1117.5C 671.5,1114.5 673.5,1112.5 676.5,1111.5 Z"/></g>
<g><path style="opacity:1" fill="#0c0c0c" d="M 343.5,1108.5 C 350.444,1113.78 356.777,1119.78 362.5,1126.5C 355.556,1121.22 349.223,1115.22 343.5,1108.5 Z"/></g>
<g><path style="opacity:1" fill="#0c0c0c" d="M 666.5,1121.5 C 663.769,1125.23 660.436,1128.23 656.5,1130.5C 659.231,1126.77 662.564,1123.77 666.5,1121.5 Z"/></g>
<g><path style="opacity:1" fill="#0f0f0f" d="M 460.5,1224.5 C 463.167,1225.17 464.833,1226.83 465.5,1229.5C 463.5,1228.17 461.833,1226.5 460.5,1224.5 Z"/></g>
<g><path style="opacity:1" fill="#0c0c0c" d="M 470.5,1234.5 C 475.774,1238.1 480.441,1242.44 484.5,1247.5C 479.226,1243.9 474.559,1239.56 470.5,1234.5 Z"/></g>
<g><path style="opacity:1" fill="#0c0c0c" d="M 549.5,1237.5 C 545.108,1242.89 540.108,1247.56 534.5,1251.5C 538.892,1246.11 543.892,1241.44 549.5,1237.5 Z"/></g>
<g><path style="opacity:1" fill="#0e0e0e" d="M 970.5,1279.5 C 971.525,1279.9 971.692,1280.56 971,1281.5C 969.887,1283.33 968.387,1284.16 966.5,1284C 968.041,1282.63 969.375,1281.13 970.5,1279.5 Z"/></g>
<g><path style="opacity:1" fill="#0f0f0f" d="M 958.5,1291.5 C 959.525,1291.9 959.692,1292.56 959,1293.5C 957.887,1295.33 956.387,1296.16 954.5,1296C 956.041,1294.63 957.375,1293.13 958.5,1291.5 Z"/></g>
<g><path style="opacity:1" fill="#0e0e0e" d="M 946.5,1303.5 C 947.525,1303.9 947.692,1304.56 947,1305.5C 944.936,1308.27 942.436,1310.11 939.5,1311C 942.039,1308.63 944.372,1306.13 946.5,1303.5 Z"/></g>
<g><path style="opacity:1" fill="#0e0e0e" d="M 933.5,1316.5 C 934.525,1316.9 934.692,1317.56 934,1318.5C 932.26,1320.95 930.093,1322.45 927.5,1323C 929.706,1320.96 931.706,1318.8 933.5,1316.5 Z"/></g>
<g><path style="opacity:1" fill="#212121" d="M 920.5,1329.5 C 921.525,1329.9 921.692,1330.56 921,1331.5C 918.609,1334.6 915.776,1336.76 912.5,1338C 915.371,1335.3 918.038,1332.46 920.5,1329.5 Z"/></g>
<g><path style="opacity:1" fill="#212121" d="M 909.5,1340.5 C 910.525,1340.9 910.692,1341.56 910,1342.5C 907.167,1345.33 904.333,1348.17 901.5,1351C 900.833,1351.67 900.167,1351.67 899.5,1351C 903.037,1347.63 906.371,1344.13 909.5,1340.5 Z"/></g>
<g><path style="opacity:1" fill="#0c0c0c" d="M 897.5,1352.5 C 898.525,1352.9 898.692,1353.56 898,1354.5C 894.833,1357.67 891.667,1360.83 888.5,1364C 887.833,1364.67 887.167,1364.67 886.5,1364C 890.37,1360.3 894.037,1356.46 897.5,1352.5 Z"/></g>
<g><path style="opacity:1" fill="#0c0c0c" d="M 149.5,1377.5 C 145.933,1375.44 142.766,1372.78 140,1369.5C 139.333,1368.83 139.333,1368.17 140,1367.5C 143.371,1370.7 146.538,1374.04 149.5,1377.5 Z"/></g>
<g><path style="opacity:1" fill="#0c0c0c" d="M 149.5,1377.5 C 154.167,1381.5 158.5,1385.83 162.5,1390.5C 157.167,1387.17 152.833,1382.83 149.5,1377.5 Z"/></g>
<g><path style="opacity:1" fill="#0c0c0c" d="M 883.5,1366.5 C 884.525,1366.9 884.692,1367.56 884,1368.5C 871,1381.5 858,1394.5 845,1407.5C 844.333,1406.83 844.333,1406.17 845,1405.5C 858.035,1392.63 870.869,1379.63 883.5,1366.5 Z"/></g>
<g><path style="opacity:1" fill="#0b0b0b" d="M 162.5,1390.5 C 177.465,1404.96 192.299,1419.63 207,1434.5C 207.667,1435.17 207.667,1435.83 207,1436.5C 191.579,1421.58 176.745,1406.25 162.5,1390.5 Z"/></g>
<g><path style="opacity:1" fill="#0b0b0b" d="M 839.5,1410.5 C 840.239,1410.37 840.906,1410.54 841.5,1411C 838.333,1414.17 835.167,1417.33 832,1420.5C 831.333,1419.83 831.333,1419.17 832,1418.5C 834.705,1415.96 837.205,1413.3 839.5,1410.5 Z"/></g>
<g><path style="opacity:1" fill="#0b0b0b" d="M 826.5,1423.5 C 827.239,1423.37 827.906,1423.54 828.5,1424C 825,1427.5 821.5,1431 818,1434.5C 817.333,1433.83 817.333,1433.17 818,1432.5C 821.038,1429.63 823.871,1426.63 826.5,1423.5 Z"/></g>
</svg>
