<?xml version="1.0" encoding="UTF-8"?>
<!DOCTYPE svg PUBLIC "-//W3C//DTD SVG 1.1//EN" "http://www.w3.org/Graphics/SVG/1.1/DTD/svg11.dtd">
<svg xmlns="http://www.w3.org/2000/svg" version="1.1" width="1025px" height="1534px" style="shape-rendering:geometricPrecision; text-rendering:geometricPrecision; image-rendering:optimizeQuality; fill-rule:evenodd; clip-rule:evenodd" xmlns:xlink="http://www.w3.org/1999/xlink">
<g><path style="opacity:0.994" fill="#2b7b99" d="M 274.5,-0.5 C 275.5,-0.5 276.5,-0.5 277.5,-0.5C 355.497,80.8305 433.831,161.83 512.5,242.5C 512.5,242.833 512.5,243.167 512.5,243.5C 430.833,322.167 349.167,400.833 267.5,479.5C 189.218,397.883 110.552,316.55 31.5,235.5C 112.547,156.785 193.547,78.1179 274.5,-0.5 Z"/></g>
<g><path style="opacity:0.994" fill="#878b8e" d="M 747.5,-0.5 C 748.167,-0.5 748.833,-0.5 749.5,-0.5C 830.67,78.1704 911.67,157.004 992.5,236C 913.976,317.023 835.643,398.19 757.5,479.5C 756.761,479.631 756.094,479.464 755.5,479C 674.631,400.63 593.631,322.463 512.5,244.5C 512.5,244.167 512.5,243.833 512.5,243.5C 512.5,243.167 512.5,242.833 512.5,242.5C 591.169,161.83 669.503,80.8305 747.5,-0.5 Z"/></g>
<g><path style="opacity:0.996" fill="#6a6d75" d="M 512.5,243.5 C 512.5,243.833 512.5,244.167 512.5,244.5C 512.5,413.833 512.5,583.167 512.5,752.5C 421.834,841.833 331.501,931.499 241.5,1021.5C 160.834,1100.83 80.5007,1180.5 0.5,1260.5C 0.166667,1260.5 -0.166667,1260.5 -0.5,1260.5C -0.5,1086.17 -0.5,911.833 -0.5,737.5C 88.5298,651.136 177.863,565.136 267.5,479.5C 349.167,400.833 430.833,322.167 512.5,243.5 Z"/></g>
<g><path style="opacity:0.997" fill="#075981" d="M 512.5,244.5 C 593.631,322.463 674.631,400.63 755.5,479C 756.094,479.464 756.761,479.631 757.5,479.5C 846.17,565.503 935.17,651.17 1024.5,736.5C 1024.5,911.167 1024.5,1085.83 1024.5,1260.5C 944.395,1181.9 864.729,1102.73 785.5,1023C 784.906,1022.54 784.239,1022.37 783.5,1022.5C 693.167,932.5 602.833,842.5 512.5,752.5C 512.5,583.167 512.5,413.833 512.5,244.5 Z"/></g>
<g><path style="opacity:0.995" fill="#cccdce" d="M 241.5,1021.5 C 331.501,1111.5 421.834,1201.17 512.5,1290.5C 512.5,1291.5 512.5,1292.5 512.5,1293.5C 432.495,1373.34 352.328,1453.01 272,1532.5C 181.365,1442.03 90.8652,1351.37 0.5,1260.5C 80.5007,1180.5 160.834,1100.83 241.5,1021.5 Z"/></g>
<g><path style="opacity:0.994" fill="#8bb1c6" d="M 783.5,1022.5 C 784.239,1022.37 784.906,1022.54 785.5,1023C 864.729,1102.73 944.395,1181.9 1024.5,1260.5C 1024.5,1260.83 1024.5,1261.17 1024.5,1261.5C 933.472,1351.53 843.139,1442.19 753.5,1533.5C 752.833,1533.5 752.167,1533.5 751.5,1533.5C 671.833,1453.5 592.167,1373.5 512.5,1293.5C 512.5,1292.5 512.5,1291.5 512.5,1290.5C 602.833,1201.17 693.167,1111.83 783.5,1022.5 Z"/></g>
</svg>
