<?xml version="1.0" encoding="UTF-8"?>
<!DOCTYPE svg PUBLIC "-//W3C//DTD SVG 1.1//EN" "http://www.w3.org/Graphics/SVG/1.1/DTD/svg11.dtd">
<svg xmlns="http://www.w3.org/2000/svg" version="1.1" width="2384px" height="1967px" style="shape-rendering:geometricPrecision; text-rendering:geometricPrecision; image-rendering:optimizeQuality; fill-rule:evenodd; clip-rule:evenodd" xmlns:xlink="http://www.w3.org/1999/xlink">
<g><path style="opacity:0.994" fill="#2b7b99" d="M 955.5,-0.5 C 956.5,-0.5 957.5,-0.5 958.5,-0.5C 1036.5,80.8305 1114.83,161.83 1193.5,242.5C 1193.5,242.833 1193.5,243.167 1193.5,243.5C 1111.83,322.167 1030.17,400.833 948.5,479.5C 870.218,397.883 791.552,316.55 712.5,235.5C 793.547,156.785 874.547,78.1179 955.5,-0.5 Z"/></g>
<g><path style="opacity:0.994" fill="#878b8e" d="M 1428.5,-0.5 C 1429.17,-0.5 1429.83,-0.5 1430.5,-0.5C 1511.67,78.1704 1592.67,157.004 1673.5,236C 1594.98,317.023 1516.64,398.19 1438.5,479.5C 1437.76,479.631 1437.09,479.464 1436.5,479C 1355.63,400.63 1274.63,322.463 1193.5,244.5C 1193.5,244.167 1193.5,243.833 1193.5,243.5C 1193.5,243.167 1193.5,242.833 1193.5,242.5C 1272.17,161.83 1350.5,80.8305 1428.5,-0.5 Z"/></g>
<g><path style="opacity:0.996" fill="#6a6d75" d="M 1193.5,243.5 C 1193.5,243.833 1193.5,244.167 1193.5,244.5C 1193.5,413.833 1193.5,583.167 1193.5,752.5C 1102.83,841.833 1012.5,931.499 922.5,1021.5C 841.834,1100.83 761.501,1180.5 681.5,1260.5C 680.334,1086.33 680.167,912 681,737.5C 769.732,650.933 858.898,564.933 948.5,479.5C 1030.17,400.833 1111.83,322.167 1193.5,243.5 Z"/></g>
<g><path style="opacity:0.997" fill="#075981" d="M 1193.5,244.5 C 1274.63,322.463 1355.63,400.63 1436.5,479C 1437.09,479.464 1437.76,479.631 1438.5,479.5C 1527.13,565.3 1615.97,650.966 1705,736.5C 1705.5,911.166 1705.67,1085.83 1705.5,1260.5C 1625.4,1181.9 1545.73,1102.73 1466.5,1023C 1465.91,1022.54 1465.24,1022.37 1464.5,1022.5C 1374.17,932.5 1283.83,842.5 1193.5,752.5C 1193.5,583.167 1193.5,413.833 1193.5,244.5 Z"/></g>
<g><path style="opacity:0.995" fill="#cccdce" d="M 922.5,1021.5 C 1012.5,1111.5 1102.83,1201.17 1193.5,1290.5C 1193.5,1291.5 1193.5,1292.5 1193.5,1293.5C 1113.49,1373.34 1033.33,1453.01 953,1532.5C 862.365,1442.03 771.865,1351.37 681.5,1260.5C 761.501,1180.5 841.834,1100.83 922.5,1021.5 Z"/></g>
<g><path style="opacity:0.994" fill="#8bb1c6" d="M 1464.5,1022.5 C 1465.24,1022.37 1465.91,1022.54 1466.5,1023C 1545.73,1102.73 1625.4,1181.9 1705.5,1260.5C 1614.83,1351.51 1524.16,1442.51 1433.5,1533.5C 1353.15,1453.81 1273.15,1373.81 1193.5,1293.5C 1193.5,1292.5 1193.5,1291.5 1193.5,1290.5C 1283.83,1201.17 1374.17,1111.83 1464.5,1022.5 Z"/></g>
<g><path style="opacity:0.96" fill="#1b4d63" d="M 1571.5,1966.5 C 1561.83,1966.5 1552.17,1966.5 1542.5,1966.5C 1519.2,1961.71 1500.03,1950.04 1485,1931.5C 1478.58,1922.9 1472.74,1913.9 1467.5,1904.5C 1475.75,1898.79 1484.25,1893.46 1493,1888.5C 1500.45,1902.21 1509.95,1914.37 1521.5,1925C 1548.32,1943.17 1573.49,1941 1597,1918.5C 1612.32,1898.21 1612.32,1877.87 1597,1857.5C 1589.2,1847.37 1580.37,1838.2 1570.5,1830C 1553.17,1816.33 1535.83,1802.67 1518.5,1789C 1488.59,1764.6 1479.75,1734.1 1492,1697.5C 1505.91,1670.78 1528.07,1657.11 1558.5,1656.5C 1585.25,1657.79 1607.08,1668.79 1624,1689.5C 1628.17,1695 1632.33,1700.5 1636.5,1706C 1628.17,1712.17 1619.83,1718.33 1611.5,1724.5C 1603.35,1713.19 1593.69,1703.35 1582.5,1695C 1565.58,1686.06 1548.92,1686.39 1532.5,1696C 1514.75,1713.15 1512.92,1731.98 1527,1752.5C 1530.8,1757.3 1534.97,1761.8 1539.5,1766C 1555.5,1778 1571.5,1790 1587.5,1802C 1604.12,1814.95 1618.29,1830.12 1630,1847.5C 1650.97,1892.11 1641.14,1928.28 1600.5,1956C 1591.26,1961.02 1581.59,1964.52 1571.5,1966.5 Z"/></g>
<g><path style="opacity:0.964" fill="#1b4d63" d="M -0.5,1959.5 C -0.5,1958.5 -0.5,1957.5 -0.5,1956.5C 45.7251,1859.71 91.7251,1762.71 137.5,1665.5C 140.446,1664.35 143.446,1664.18 146.5,1665C 192.295,1762.76 237.962,1860.59 283.5,1958.5C 272.5,1959.83 261.5,1959.83 250.5,1958.5C 235.295,1926.59 219.962,1894.76 204.5,1863C 162.496,1862.17 120.496,1862.33 78.5,1863.5C 63.227,1895.05 48.227,1926.71 33.5,1958.5C 22.1862,1959.5 10.8529,1959.83 -0.5,1959.5 Z M 141.5,1728.5 C 158.264,1763.2 174.93,1798.03 191.5,1833C 158.5,1833.67 125.5,1833.67 92.5,1833C 109.252,1798.33 125.586,1763.5 141.5,1728.5 Z"/></g>
<g><path style="opacity:0.968" fill="#1b4d63" d="M 328.5,1664.5 C 360.168,1664.33 391.835,1664.5 423.5,1665C 521.196,1667.86 572.529,1718.03 577.5,1815.5C 577.793,1862.19 560.793,1901.02 526.5,1932C 505.481,1947.57 481.814,1956.23 455.5,1958C 413.187,1959.43 370.853,1959.93 328.5,1959.5C 328.5,1861.17 328.5,1762.83 328.5,1664.5 Z M 357.5,1694.5 C 387.588,1693.7 417.588,1694.87 447.5,1698C 500.741,1706.24 532.907,1736.74 544,1789.5C 549.717,1820.69 545.383,1850.36 531,1878.5C 512.579,1908.31 485.746,1924.81 450.5,1928C 419.546,1930.24 388.546,1931.07 357.5,1930.5C 357.5,1851.83 357.5,1773.17 357.5,1694.5 Z"/></g>
<g><path style="opacity:0.96" fill="#1b4d63" d="M 661.5,1664.5 C 663.924,1664.19 666.257,1664.53 668.5,1665.5C 707.472,1745.44 746.972,1825.11 787,1904.5C 826.272,1824.96 865.272,1745.29 904,1665.5C 906.041,1664.58 908.208,1664.24 910.5,1664.5C 924.873,1762.78 938.873,1861.11 952.5,1959.5C 942.5,1959.5 932.5,1959.5 922.5,1959.5C 913.411,1889.79 903.911,1820.12 894,1750.5C 860.105,1819.96 825.939,1889.29 791.5,1958.5C 788.291,1959.79 785.125,1959.79 782,1958.5C 747.062,1888.96 712.395,1819.29 678,1749.5C 668.078,1819.45 658.578,1889.45 649.5,1959.5C 639.5,1959.5 629.5,1959.5 619.5,1959.5C 633.686,1861.2 647.686,1762.86 661.5,1664.5 Z"/></g>
<g><path style="opacity:0.98" fill="#1b4d63" d="M 1005.5,1664.5 C 1015.5,1664.5 1025.5,1664.5 1035.5,1664.5C 1035.5,1762.83 1035.5,1861.17 1035.5,1959.5C 1025.5,1959.5 1015.5,1959.5 1005.5,1959.5C 1005.5,1861.17 1005.5,1762.83 1005.5,1664.5 Z"/></g>
<g><path style="opacity:0.969" fill="#1b4d63" d="M 1102.5,1664.5 C 1107.22,1663.55 1111.06,1664.89 1114,1668.5C 1176.96,1741.8 1240.29,1814.8 1304,1887.5C 1304.5,1813.17 1304.67,1738.83 1304.5,1664.5C 1314.5,1664.5 1324.5,1664.5 1334.5,1664.5C 1334.5,1762.83 1334.5,1861.17 1334.5,1959.5C 1331.55,1959.78 1328.72,1959.44 1326,1958.5C 1262.24,1884.65 1198.24,1810.98 1134,1737.5C 1133.5,1811.5 1133.33,1885.5 1133.5,1959.5C 1123.17,1959.5 1112.83,1959.5 1102.5,1959.5C 1102.5,1861.17 1102.5,1762.83 1102.5,1664.5 Z"/></g>
<g><path style="opacity:0.982" fill="#1b4d63" d="M 1401.5,1664.5 C 1411.5,1664.5 1421.5,1664.5 1431.5,1664.5C 1431.5,1762.83 1431.5,1861.17 1431.5,1959.5C 1421.5,1959.5 1411.5,1959.5 1401.5,1959.5C 1401.5,1861.17 1401.5,1762.83 1401.5,1664.5 Z"/></g>
<g><path style="opacity:0.968" fill="#1b4d63" d="M 1673.5,1664.5 C 1727.5,1664.5 1781.5,1664.5 1835.5,1664.5C 1835.5,1674.5 1835.5,1684.5 1835.5,1694.5C 1813.5,1694.5 1791.5,1694.5 1769.5,1694.5C 1769.5,1782.83 1769.5,1871.17 1769.5,1959.5C 1759.17,1959.5 1748.83,1959.5 1738.5,1959.5C 1738.5,1871.17 1738.5,1782.83 1738.5,1694.5C 1716.83,1694.5 1695.17,1694.5 1673.5,1694.5C 1673.5,1684.5 1673.5,1674.5 1673.5,1664.5 Z"/></g>
<g><path style="opacity:0.969" fill="#1b4d63" d="M 1878.5,1664.5 C 1910.5,1664.33 1942.5,1664.5 1974.5,1665C 2003.24,1663.35 2027.41,1672.85 2047,1693.5C 2063.21,1716.3 2067.55,1741.3 2060,1768.5C 2051.15,1794.68 2033.32,1811.18 2006.5,1818C 1992.02,1821.2 1977.35,1822.87 1962.5,1823C 1997.69,1868.02 2032.69,1913.19 2067.5,1958.5C 2054.83,1959.83 2042.17,1959.83 2029.5,1958.5C 1994.62,1913.24 1959.62,1868.08 1924.5,1823C 1919.18,1822.5 1913.84,1822.33 1908.5,1822.5C 1908.5,1868.17 1908.5,1913.83 1908.5,1959.5C 1898.5,1959.5 1888.5,1959.5 1878.5,1959.5C 1878.5,1861.17 1878.5,1762.83 1878.5,1664.5 Z M 1908.5,1694.5 C 1933.17,1694.33 1957.84,1694.5 1982.5,1695C 2012.29,1697.46 2028.95,1713.46 2032.5,1743C 2030.67,1767.02 2018.34,1782.68 1995.5,1790C 1988.58,1791.54 1981.58,1792.54 1974.5,1793C 1952.5,1793.5 1930.5,1793.67 1908.5,1793.5C 1908.5,1760.5 1908.5,1727.5 1908.5,1694.5 Z"/></g>
<g><path style="opacity:0.964" fill="#1b4d63" d="M 2383.5,1956.5 C 2383.5,1957.5 2383.5,1958.5 2383.5,1959.5C 2372.48,1959.83 2361.48,1959.5 2350.5,1958.5C 2335.69,1926.75 2320.69,1895.08 2305.5,1863.5C 2263.5,1862.33 2221.5,1862.17 2179.5,1863C 2163.93,1894.64 2148.77,1926.47 2134,1958.5C 2122.56,1959.82 2111.06,1959.82 2099.5,1958.5C 2145.67,1860.83 2191.83,1763.17 2238,1665.5C 2241.6,1663.9 2244.93,1664.23 2248,1666.5C 2292.94,1763.38 2338.11,1860.04 2383.5,1956.5 Z M 2241.5,1729.5 C 2242.75,1729.58 2243.58,1730.24 2244,1731.5C 2259.83,1765.17 2275.67,1798.83 2291.5,1832.5C 2258.83,1833.83 2226.17,1833.83 2193.5,1832.5C 2209.79,1798.25 2225.79,1763.92 2241.5,1729.5 Z"/></g>
</svg>
