<svg width="24" height="23" viewBox="0 0 24 23" fill="none" xmlns="http://www.w3.org/2000/svg">
<path d="M22.3866 5.14739C21.9894 4.57623 21.4548 4.21718 20.8404 4.10968L20.8322 4.10844C20.5532 4.0623 20.268 4.06897 19.9914 4.1281L19.961 4.13457C18.6697 4.42942 17.5812 5.81144 17.253 7.57363C17.0115 8.86258 17.2256 10.1481 17.8259 11.0126C18.2228 11.5844 18.7583 11.9432 19.375 12.0502L19.3817 12.0513C19.6608 12.0973 19.9459 12.0907 20.2225 12.0316C21.5303 11.7536 22.6326 10.3687 22.9687 8.58248C23.2042 7.29627 22.9875 6.01226 22.3866 5.14739ZM18.6952 13.2316C17.8527 12.9414 17.0562 12.6669 16.4328 12.0021C14.7114 10.1612 13.672 9.05003 11.6571 9.47831C9.64215 9.9066 9.14265 11.3448 8.31602 13.7274C8.01612 14.5894 7.39886 15.1649 6.74522 15.7751C5.99566 16.4742 5.22122 17.1965 5.06111 18.328C4.99256 18.7382 5.00328 19.1577 5.09268 19.5639C5.45608 21.2735 7.08329 22.3814 8.7192 22.0337C9.56331 21.8543 10.3995 21.3709 11.2843 20.8592C12.135 20.3673 13.0146 19.8587 13.8316 19.6851C14.6486 19.5114 15.6565 19.6188 16.6305 19.7229C17.6446 19.8289 18.6008 19.9313 19.4473 19.7514C21.0808 19.4042 22.1143 17.7307 21.7509 16.0211C21.6658 15.6137 21.5033 15.2264 21.2723 14.8802C20.6657 13.9107 19.6638 13.5655 18.6952 13.2316ZM6.2609 8.87821C6.97772 9.46793 7.7789 9.7062 8.51696 9.54932C8.61771 9.5279 8.71674 9.49904 8.81323 9.46298C10.3045 8.90942 10.8644 6.82709 10.0872 4.71883C9.76113 3.83234 9.22818 3.05542 8.58985 2.53103C7.87428 1.94254 7.07226 1.70495 6.33467 1.86172C6.23392 1.88314 6.13489 1.912 6.0384 1.94806C4.54715 2.50163 3.98723 4.58395 4.76439 6.69222C5.08972 7.57738 5.62247 8.35335 6.2609 8.87821ZM14.2493 8.30751C14.3521 8.30121 14.4543 8.28729 14.5551 8.26588C15.2936 8.1089 15.9281 7.56546 16.3431 6.73517C16.7124 5.99611 16.8816 5.07095 16.8204 4.12863C16.6731 1.88748 15.3146 0.212926 13.727 0.312814C13.6241 0.319118 13.5219 0.333034 13.4212 0.354447C12.6838 0.512177 12.0477 1.05544 11.6334 1.8841C11.2636 2.62279 11.0927 3.54931 11.156 4.49265C11.3033 6.7338 12.6618 8.40835 14.2493 8.30751ZM5.64677 14.9707L5.65292 14.9669C6.17184 14.6186 6.51475 14.0735 6.6444 13.3903C6.84075 12.3545 6.51424 11.0943 5.77035 10.0148C4.74055 8.52092 3.17062 7.70348 1.86427 7.98115C1.58755 8.03955 1.32427 8.14947 1.08817 8.30517L1.08202 8.30896C0.564126 8.65514 0.221621 9.20212 0.0919673 9.88527C-0.104383 10.9211 0.222128 12.1813 0.966021 13.2608C1.99582 14.7547 3.56576 15.5721 4.8721 15.2945C5.14831 15.236 5.41108 15.1262 5.64677 14.9707Z" fill="#EC9126"/>
</svg>
