<svg width="20" height="21" viewBox="0 0 20 21" fill="none" xmlns="http://www.w3.org/2000/svg">
<path fill-rule="evenodd" clip-rule="evenodd" d="M13.501 15.2471C13.156 15.2471 12.8727 14.9671 12.8727 14.6221C12.8727 14.2771 13.1485 13.9971 13.4935 13.9971H13.501C13.846 13.9971 14.126 14.2771 14.126 14.6221C14.126 14.9671 13.846 15.2471 13.501 15.2471Z" fill="#212121"/>
<path fill-rule="evenodd" clip-rule="evenodd" d="M9.80302 15.2471C9.45802 15.2471 9.17468 14.9671 9.17468 14.6221C9.17468 14.2771 9.45052 13.9971 9.79552 13.9971H9.80302C10.148 13.9971 10.428 14.2771 10.428 14.6221C10.428 14.9671 10.148 15.2471 9.80302 15.2471Z" fill="#212121"/>
<path fill-rule="evenodd" clip-rule="evenodd" d="M6.09743 15.2471C5.75243 15.2471 5.46826 14.9671 5.46826 14.6221C5.46826 14.2771 5.74493 13.9971 6.08993 13.9971H6.09743C6.44243 13.9971 6.72243 14.2771 6.72243 14.6221C6.72243 14.9671 6.44243 15.2471 6.09743 15.2471Z" fill="#212121"/>
<path fill-rule="evenodd" clip-rule="evenodd" d="M13.501 12.0083C13.156 12.0083 12.8727 11.7283 12.8727 11.3833C12.8727 11.0383 13.1485 10.7583 13.4935 10.7583H13.501C13.846 10.7583 14.126 11.0383 14.126 11.3833C14.126 11.7283 13.846 12.0083 13.501 12.0083Z" fill="#212121"/>
<path fill-rule="evenodd" clip-rule="evenodd" d="M9.80302 12.0083C9.45802 12.0083 9.17468 11.7283 9.17468 11.3833C9.17468 11.0383 9.45052 10.7583 9.79552 10.7583H9.80302C10.148 10.7583 10.428 11.0383 10.428 11.3833C10.428 11.7283 10.148 12.0083 9.80302 12.0083Z" fill="#212121"/>
<path fill-rule="evenodd" clip-rule="evenodd" d="M6.09743 12.0083C5.75243 12.0083 5.46826 11.7283 5.46826 11.3833C5.46826 11.0383 5.74493 10.7583 6.08993 10.7583H6.09743C6.44243 10.7583 6.72243 11.0383 6.72243 11.3833C6.72243 11.7283 6.44243 12.0083 6.09743 12.0083Z" fill="#212121"/>
<path fill-rule="evenodd" clip-rule="evenodd" d="M17.222 8.75391H2.36865C2.02365 8.75391 1.74365 8.47391 1.74365 8.12891C1.74365 7.78391 2.02365 7.50391 2.36865 7.50391H17.222C17.567 7.50391 17.847 7.78391 17.847 8.12891C17.847 8.47391 17.567 8.75391 17.222 8.75391Z" fill="#212121"/>
<path fill-rule="evenodd" clip-rule="evenodd" d="M13.1613 5.326C12.8163 5.326 12.5363 5.046 12.5363 4.701V1.9585C12.5363 1.6135 12.8163 1.3335 13.1613 1.3335C13.5063 1.3335 13.7863 1.6135 13.7863 1.9585V4.701C13.7863 5.046 13.5063 5.326 13.1613 5.326Z" fill="#212121"/>
<path fill-rule="evenodd" clip-rule="evenodd" d="M6.42932 5.326C6.08432 5.326 5.80432 5.046 5.80432 4.701V1.9585C5.80432 1.6135 6.08432 1.3335 6.42932 1.3335C6.77432 1.3335 7.05432 1.6135 7.05432 1.9585V4.701C7.05432 5.046 6.77432 5.326 6.42932 5.326Z" fill="#212121"/>
<mask id="mask0_378_2122" style="mask-type:luminance" maskUnits="userSpaceOnUse" x="1" y="2" width="17" height="18">
<path fill-rule="evenodd" clip-rule="evenodd" d="M1.66663 2.64941H17.9166V19.2502H1.66663V2.64941Z" fill="white"/>
</mask>
<g mask="url(#mask0_378_2122)">
<path fill-rule="evenodd" clip-rule="evenodd" d="M6.26746 3.89941C4.10663 3.89941 2.91663 5.05191 2.91663 7.14441V14.6852C2.91663 16.8236 4.10663 18.0002 6.26746 18.0002H13.3158C15.4766 18.0002 16.6666 16.8452 16.6666 14.7486V7.14441C16.67 6.11525 16.3933 5.31525 15.8441 4.76525C15.2791 4.19858 14.4083 3.89941 13.3233 3.89941H6.26746ZM13.3158 19.2502H6.26746C3.42996 19.2502 1.66663 17.5011 1.66663 14.6852V7.14441C1.66663 4.37108 3.42996 2.64941 6.26746 2.64941H13.3233C14.7475 2.64941 15.925 3.07608 16.7291 3.88191C17.51 4.66608 17.9208 5.79358 17.9166 7.14608V14.7486C17.9166 17.5252 16.1533 19.2502 13.3158 19.2502Z" fill="#212121"/>
</g>
</svg>
