<svg width="28" height="28" viewBox="0 0 28 28" fill="none" xmlns="http://www.w3.org/2000/svg">
<path fill-rule="evenodd" clip-rule="evenodd" d="M3.83688 4.7692L3.92152 4.68075C6.17018 2.43189 7.63453 1.8358 9.19695 2.73427C9.64639 2.99271 10.0677 3.35448 10.6407 3.93639L12.3981 5.75875C13.3688 6.81796 13.5895 7.83395 13.2734 9.0238L13.2299 9.18132L13.1815 9.33794L12.9466 10.0272C12.4437 11.573 12.6537 12.4452 14.4427 14.2338C16.3032 16.0938 17.1717 16.246 18.8367 15.6642L19.1335 15.561L19.4923 15.4445L19.6494 15.4009C20.9141 15.0635 21.9824 15.3327 23.1154 16.465L24.5315 17.8328L24.9483 18.2427C25.4104 18.714 25.7158 19.0874 25.9415 19.4821C26.8343 21.044 26.2376 22.5075 23.9241 24.8124L23.704 25.0354C23.3586 25.3683 23.0359 25.6068 22.5617 25.8319C21.7659 26.2097 20.8257 26.3522 19.7333 26.2003C17.0412 25.8259 13.6269 23.7018 9.30057 19.3766C8.94839 19.0245 8.61109 18.6792 8.28833 18.3406L7.6621 17.6723C1.79393 11.2967 1.27624 7.38024 3.68108 4.92396L3.83688 4.7692ZM9.22419 4.99445C8.8441 4.61973 8.56799 4.3913 8.32458 4.25132C7.78613 3.94169 7.20479 4.07258 6.12888 4.9986L5.79082 5.30061C5.73186 5.35504 5.67154 5.41155 5.60982 5.47017L5.22217 5.84774L5.18724 5.89138L4.92443 6.15541C4.28936 6.80409 3.98853 7.59578 4.24776 8.95732C4.67314 11.1915 6.6202 14.2223 10.5378 18.139C14.6199 22.22 17.7301 24.1548 19.9743 24.467C21.2826 24.6489 21.9499 24.3321 22.6305 23.6348L23.1495 23.1111C23.3929 22.8564 23.6008 22.6256 23.7764 22.4147L24.0159 22.1129C24.628 21.2976 24.6839 20.8085 24.4222 20.3505C24.3226 20.1763 24.1777 19.9852 23.9667 19.7518L23.6806 19.4496L23.5113 19.2801L21.7249 17.5551C21.1279 17.0046 20.7199 16.9265 20.1005 17.0917L19.9217 17.1432L19.1817 17.3944C17.0349 18.0877 15.4861 17.7515 13.2055 15.4714C10.8434 13.1099 10.5664 11.533 11.3578 9.26241L11.4086 9.1165L11.549 8.6935L11.618 8.42388C11.7404 7.83708 11.6006 7.42794 10.9698 6.79705C10.9439 6.77108 10.9148 6.74181 10.8833 6.70978L9.22419 4.99445Z" fill="#212121"/>
</svg>
