<svg width="23" height="22" viewBox="0 0 23 22" fill="none" xmlns="http://www.w3.org/2000/svg">
<mask id="mask0_666_7876" style="mask-type:luminance" maskUnits="userSpaceOnUse" x="0" y="0" width="23" height="22">
<path fill-rule="evenodd" clip-rule="evenodd" d="M0.599991 0.000488281H22.093V21.4943H0.599991V0.000488281Z" fill="white"/>
</mask>
<g mask="url(#mask0_666_7876)">
<path fill-rule="evenodd" clip-rule="evenodd" d="M5.7084 18.6755C6.2884 18.6755 6.8354 18.8955 7.4144 19.1285C10.9614 20.7685 15.1564 20.0225 17.8894 17.2905C21.4954 13.6825 21.4954 7.81349 17.8894 4.20749C16.1434 2.46149 13.8214 1.50049 11.3494 1.50049C8.8764 1.50049 6.5534 2.46249 4.8084 4.20849C2.0744 6.94049 1.3304 11.1355 2.9554 14.6485C3.1894 15.2275 3.4154 15.7915 3.4154 16.3775C3.4154 16.9625 3.2144 17.5515 3.0374 18.0715C2.8914 18.4995 2.6704 19.1455 2.8124 19.2875C2.9514 19.4315 3.6014 19.2045 4.0304 19.0575C4.5454 18.8815 5.1294 18.6795 5.7084 18.6755ZM11.3244 21.4945C9.7964 21.4945 8.2584 21.1715 6.8194 20.5055C6.3954 20.3355 5.9984 20.1755 5.7134 20.1755C5.3854 20.1775 4.9444 20.3295 4.5184 20.4765C3.6444 20.7765 2.5564 21.1505 1.7514 20.3485C0.949398 19.5455 1.3194 18.4605 1.6174 17.5875C1.7644 17.1575 1.9154 16.7135 1.9154 16.3775C1.9154 16.1015 1.7824 15.7495 1.5784 15.2425C-0.294603 11.1975 0.571398 6.32249 3.7484 3.14749C5.7764 1.11849 8.4754 0.000488281 11.3484 0.000488281C14.2214 0.000488281 16.9214 1.11749 18.9494 3.14649C23.1414 7.33849 23.1414 14.1585 18.9494 18.3505C16.8944 20.4065 14.1274 21.4945 11.3244 21.4945Z" fill="#9E9E9E"/>
</g>
<path fill-rule="evenodd" clip-rule="evenodd" d="M15.2963 12.1631C14.7443 12.1631 14.2923 11.7161 14.2923 11.1631C14.2923 10.6101 14.7353 10.1631 15.2873 10.1631H15.2963C15.8483 10.1631 16.2963 10.6101 16.2963 11.1631C16.2963 11.7161 15.8483 12.1631 15.2963 12.1631Z" fill="#9E9E9E"/>
<path fill-rule="evenodd" clip-rule="evenodd" d="M11.2875 12.1631C10.7355 12.1631 10.2835 11.7161 10.2835 11.1631C10.2835 10.6101 10.7255 10.1631 11.2785 10.1631H11.2875C11.8395 10.1631 12.2875 10.6101 12.2875 11.1631C12.2875 11.7161 11.8395 12.1631 11.2875 12.1631Z" fill="#9E9E9E"/>
<path fill-rule="evenodd" clip-rule="evenodd" d="M7.27829 12.1631C6.72629 12.1631 6.27429 11.7161 6.27429 11.1631C6.27429 10.6101 6.71729 10.1631 7.26929 10.1631H7.27829C7.83029 10.1631 8.27829 10.6101 8.27829 11.1631C8.27829 11.7161 7.83029 12.1631 7.27829 12.1631Z" fill="#9E9E9E"/>
</svg>
