<svg width="32" height="32" viewBox="0 0 32 32" fill="none" xmlns="http://www.w3.org/2000/svg">
<path d="M0 16C0 7.16344 7.16344 0 16 0C24.8366 0 32 7.16344 32 16C32 24.8366 24.8366 32 16 32C7.16344 32 0 24.8366 0 16Z" fill="#2b7c9a"/>
<path d="M23.1836 12.7336L14.3836 21.5336C14.307 21.6106 14.2159 21.6716 14.1156 21.7132C14.0153 21.7549 13.9078 21.7763 13.7992 21.7763C13.6907 21.7763 13.5831 21.7549 13.4829 21.7132C13.3826 21.6716 13.2915 21.6106 13.2149 21.5336L9.36486 17.6837C9.28812 17.6069 9.22724 17.5158 9.18571 17.4155C9.14418 17.3153 9.1228 17.2078 9.1228 17.0993C9.1228 16.9907 9.14418 16.8833 9.18571 16.783C9.22724 16.6827 9.28812 16.5916 9.36486 16.5149C9.4416 16.4382 9.5327 16.3773 9.63297 16.3358C9.73324 16.2942 9.84071 16.2728 9.94923 16.2728C10.0578 16.2728 10.1652 16.2942 10.2655 16.3358C10.3658 16.3773 10.4569 16.4382 10.5336 16.5149L13.7999 19.7812L22.0162 11.5663C22.1712 11.4113 22.3814 11.3242 22.6006 11.3242C22.8198 11.3242 23.03 11.4113 23.185 11.5663C23.34 11.7213 23.427 11.9315 23.427 12.1506C23.427 12.3698 23.34 12.58 23.185 12.735L23.1836 12.7336Z" fill="white"/>
</svg>
