<svg width="14" height="14" viewBox="0 0 14 14" fill="none" xmlns="http://www.w3.org/2000/svg">
<path fill-rule="evenodd" clip-rule="evenodd" d="M0.333252 7.00016C0.333252 3.32016 3.31325 0.333496 6.99992 0.333496C10.6799 0.333496 13.6666 3.32016 13.6666 7.00016C13.6666 10.6868 10.6799 13.6668 6.99992 13.6668C3.31325 13.6668 0.333252 10.6868 0.333252 7.00016ZM8.48659 8.22016L9.56659 4.80683C9.63992 4.5735 9.42659 4.3535 9.19325 4.42683L5.77992 5.4935C5.63992 5.54016 5.52659 5.64683 5.48659 5.78683L4.41992 9.20683C4.34659 9.4335 4.56659 9.6535 4.79325 9.58016L8.19325 8.5135C8.33325 8.4735 8.44659 8.36016 8.48659 8.22016Z" fill="#2b7c9a"/>
</svg>
