<svg width="15" height="17" viewBox="0 0 15 17" fill="none" xmlns="http://www.w3.org/2000/svg">
<path d="M14.3797 8.05781C14.4378 8.11586 14.4839 8.18479 14.5153 8.26066C14.5468 8.33653 14.563 8.41786 14.563 8.5C14.563 8.58213 14.5468 8.66346 14.5153 8.73934C14.4839 8.81521 14.4378 8.88414 14.3797 8.94219L7.96949 15.3484C7.14888 16.1689 6.03592 16.6299 4.87547 16.6298C3.71501 16.6297 2.60212 16.1687 1.7816 15.348C0.96109 14.5274 0.500171 13.4145 0.500244 12.254C0.500317 11.0936 0.961376 9.98067 1.78199 9.16015L9.53668 1.2914C10.1225 0.704924 10.9174 0.375196 11.7464 0.374756C12.5753 0.374317 13.3705 0.703202 13.957 1.28906C14.5435 1.87492 14.8732 2.66976 14.8736 3.49873C14.8741 4.3277 14.5452 5.12289 13.9593 5.70937L6.20309 13.5781C5.85085 13.9304 5.37311 14.1283 4.87496 14.1283C4.37682 14.1283 3.89908 13.9304 3.54684 13.5781C3.1946 13.2259 2.99671 12.7481 2.99671 12.25C2.99671 11.7519 3.1946 11.2741 3.54684 10.9219L10.0547 4.31094C10.1117 4.25012 10.1803 4.20133 10.2564 4.16742C10.3326 4.13351 10.4147 4.11518 10.4981 4.1135C10.5814 4.11183 10.6642 4.12684 10.7417 4.15765C10.8191 4.18847 10.8896 4.23446 10.949 4.29293C11.0085 4.3514 11.0556 4.42117 11.0876 4.49812C11.1197 4.57507 11.136 4.65765 11.1356 4.74101C11.1353 4.82436 11.1183 4.90681 11.0856 4.98349C11.0529 5.06016 11.0052 5.12953 10.9453 5.1875L4.43668 11.8055C4.37841 11.8633 4.33209 11.932 4.30038 12.0077C4.26866 12.0834 4.25217 12.1646 4.25184 12.2467C4.25152 12.3288 4.26736 12.4102 4.29847 12.4861C4.32958 12.5621 4.37535 12.6312 4.43317 12.6895C4.49098 12.7477 4.5597 12.794 4.63541 12.8258C4.71113 12.8575 4.79234 12.874 4.87443 12.8743C4.95652 12.8746 5.03786 12.8588 5.11382 12.8277C5.18979 12.7965 5.25888 12.7508 5.31715 12.693L13.0726 4.82812C13.4249 4.47661 13.623 3.99956 13.6235 3.50193C13.6241 3.0043 13.4269 2.52685 13.0754 2.17461C12.7238 1.82237 12.2468 1.62419 11.7492 1.62368C11.2515 1.62317 10.7741 1.82036 10.4218 2.17187L2.66871 10.0375C2.37827 10.3275 2.14778 10.6718 1.99041 11.0509C1.83305 11.43 1.75189 11.8363 1.75156 12.2467C1.75123 12.6572 1.83175 13.0636 1.98851 13.4429C2.14527 13.8223 2.37521 14.167 2.6652 14.4574C2.95518 14.7479 3.29954 14.9784 3.6786 15.1357C4.05766 15.2931 4.464 15.3742 4.87443 15.3746C5.28486 15.3749 5.69133 15.2944 6.07064 15.1376C6.44995 14.9809 6.79467 14.7509 7.08512 14.4609L13.4961 8.05469C13.6137 7.93798 13.7728 7.87275 13.9385 7.87333C14.1042 7.87392 14.2629 7.94027 14.3797 8.05781Z" fill="#212121"/>
</svg>
