<svg width="60" height="45" viewBox="0 0 60 45" fill="none" xmlns="http://www.w3.org/2000/svg">
<g clip-path="url(#clip0_419_468)">
<rect width="60" height="45" rx="2" fill="#1A47B8"/>
<path fill-rule="evenodd" clip-rule="evenodd" d="M6.38278 0H0V7.5L53.5826 45L60 45V37.5L6.38278 0Z" fill="white"/>
<path d="M2.12885 0L60 40.6063V45H57.9211L0 4.35168V0H2.12885Z" fill="#F93939"/>
<path fill-rule="evenodd" clip-rule="evenodd" d="M54.2857 0H60V7.5C60 7.5 22.8852 32.4842 5.71429 45H0V37.5L54.2857 0Z" fill="white"/>
<path d="M60 0H58.0622L0 40.6413V45H2.12885L60 4.38454V0Z" fill="#F93939"/>
<path fill-rule="evenodd" clip-rule="evenodd" d="M21.8202 0H38.2297V13.8805H60V31.1104H38.2297V45H21.8202V31.1104H0V13.8805H21.8202V0Z" fill="white"/>
<path fill-rule="evenodd" clip-rule="evenodd" d="M25.2632 0H34.7368V17.3077H60V27.6923H34.7368V45H25.2632V27.6923H0V17.3077H25.2632V0Z" fill="#F93939"/>
</g>
<rect x="0.5" y="0.5" width="59" height="44" rx="1.5" stroke="#EEEEEE"/>
<defs>
<clipPath id="clip0_419_468">
<rect width="60" height="45" rx="2" fill="white"/>
</clipPath>
</defs>
</svg>
