<svg width="60" height="45" viewBox="0 0 60 45" fill="none" xmlns="http://www.w3.org/2000/svg">
<g clip-path="url(#clip0_419_460)">
<rect width="60" height="45" rx="2" fill="white"/>
<path fill-rule="evenodd" clip-rule="evenodd" d="M0 0H25.7143V21H0V0Z" fill="#1A47B8"/>
<path fill-rule="evenodd" clip-rule="evenodd" d="M25.7143 0V3H60V0H25.7143ZM25.7143 6V9H60V6H25.7143ZM25.7143 12V15H60V12H25.7143ZM25.7143 18V21H60V18H25.7143ZM0 24V27H60V24H0ZM0 30V33H60V30H0ZM0 36V39H60V36H0ZM0 42V45H60V42H0Z" fill="#F93939"/>
<path fill-rule="evenodd" clip-rule="evenodd" d="M2.85718 3V6H5.71432V3H2.85718ZM8.57146 3V6H11.4286V3H8.57146ZM14.2857 3V6H17.1429V3H14.2857ZM20 3V6H22.8572V3H20ZM17.1429 6V9H20V6H17.1429ZM11.4286 6V9H14.2857V6H11.4286ZM5.71432 6V9H8.57146V6H5.71432ZM2.85718 9V12H5.71432V9H2.85718ZM8.57146 9V12H11.4286V9H8.57146ZM14.2857 9V12H17.1429V9H14.2857ZM20 9V12H22.8572V9H20ZM2.85718 15V18H5.71432V15H2.85718ZM8.57146 15V18H11.4286V15H8.57146ZM14.2857 15V18H17.1429V15H14.2857ZM20 15V18H22.8572V15H20ZM17.1429 12V15H20V12H17.1429ZM11.4286 12V15H14.2857V12H11.4286ZM5.71432 12V15H8.57146V12H5.71432Z" fill="white"/>
</g>
<rect x="0.5" y="0.5" width="59" height="44" rx="1.5" stroke="#EEEEEE"/>
<defs>
<clipPath id="clip0_419_460">
<rect width="60" height="45" rx="2" fill="white"/>
</clipPath>
</defs>
</svg>
