<svg width="24" height="25" viewBox="0 0 24 25" fill="none" xmlns="http://www.w3.org/2000/svg">
<mask id="mask0_159_5433" style="mask-type:luminance" maskUnits="userSpaceOnUse" x="0" y="0" width="24" height="24">
<path fill-rule="evenodd" clip-rule="evenodd" d="M0.333328 0.333374H23.0563V23.0565H0.333328V0.333374Z" fill="white"/>
</mask>
<g mask="url(#mask0_159_5433)">
<path fill-rule="evenodd" clip-rule="evenodd" d="M11.6953 2.08337C6.3951 2.08337 2.0831 6.39421 2.0831 11.6944C2.0831 16.9945 6.3951 21.3065 11.6953 21.3065C16.9943 21.3065 21.3063 16.9945 21.3063 11.6944C21.3063 6.39421 16.9943 2.08337 11.6953 2.08337ZM11.6953 23.0565C5.43027 23.0565 0.333099 17.9594 0.333099 11.6944C0.333099 5.42937 5.43027 0.333374 11.6953 0.333374C17.9603 0.333374 23.0563 5.42937 23.0563 11.6944C23.0563 17.9594 17.9603 23.0565 11.6953 23.0565Z" fill="#212121"/>
</g>
<mask id="mask1_159_5433" style="mask-type:luminance" maskUnits="userSpaceOnUse" x="18" y="18" width="6" height="7">
<path fill-rule="evenodd" clip-rule="evenodd" d="M18.1133 18.6582H23.9747V24.5087H18.1133V18.6582Z" fill="white"/>
</mask>
<g mask="url(#mask1_159_5433)">
<path fill-rule="evenodd" clip-rule="evenodd" d="M23.0999 24.5087C22.8771 24.5087 22.6531 24.4236 22.4816 24.2532L18.3702 20.1536C18.0284 19.8117 18.0272 19.2576 18.3691 18.9157C18.7097 18.5716 19.2639 18.5739 19.6069 18.9134L23.7182 23.0142C24.0601 23.3561 24.0612 23.9091 23.7194 24.2509C23.5491 24.4236 23.3239 24.5087 23.0999 24.5087Z" fill="#212121"/>
</g>
</svg>
