<svg width="20" height="20" viewBox="0 0 20 20" fill="none" xmlns="http://www.w3.org/2000/svg">
<path d="M0.00930214 7.64817C0.0115719 7.96509 0.115688 8.27288 0.306276 8.5261C0.496864 8.77932 0.763824 8.96454 1.06774 9.05442L8.24524 11.2632L10.454 18.4407C10.544 18.7445 10.7293 19.0114 10.9824 19.202C11.2356 19.3925 11.5434 19.4967 11.8602 19.4991H11.8884C12.1991 19.502 12.5029 19.4069 12.7565 19.2274C13.0101 19.0478 13.2007 18.7929 13.3012 18.4988L19.4156 2.00724C19.4175 2.00238 19.4191 1.99736 19.4202 1.99224C19.5116 1.72677 19.5267 1.44097 19.4637 1.16737C19.4007 0.893761 19.2622 0.643326 19.0639 0.444552C18.8656 0.245777 18.6155 0.106644 18.3421 0.0429789C18.0686 -0.020686 17.7828 -0.00632628 17.5171 0.0844241L17.5021 0.0891115L1.00961 6.20724C0.710987 6.30931 0.452827 6.50421 0.272858 6.76345C0.0928879 7.0227 0.000537872 7.3327 0.00930214 7.64817Z" fill="#2b7c9a"/>
</svg>
