<svg width="49" height="48" viewBox="0 0 49 48" fill="none" xmlns="http://www.w3.org/2000/svg">
<path d="M0.25 24C0.25 10.7452 10.9952 0 24.25 0C37.5048 0 48.25 10.7452 48.25 24C48.25 37.2548 37.5048 48 24.25 48C10.9952 48 0.25 37.2548 0.25 24Z" fill="#2b7c9a"/>
<path fill-rule="evenodd" clip-rule="evenodd" d="M29.6834 14.0996C31.1585 14.0996 32.5775 14.6826 33.6214 15.7287C34.6664 16.7726 35.2505 18.1806 35.2505 19.6546V28.3446C35.2505 31.4136 32.7535 33.8996 29.6834 33.8996H18.8165C15.7464 33.8996 13.2505 31.4136 13.2505 28.3446V19.6546C13.2505 16.5856 15.7354 14.0996 18.8165 14.0996H29.6834ZM31.4335 21.2936L31.5215 21.2056C31.7844 20.8866 31.7844 20.4246 31.5094 20.1056C31.3565 19.9417 31.1464 19.8416 30.9275 19.8196C30.6965 19.8075 30.4765 19.8856 30.3104 20.0396L25.3505 23.9996C24.7125 24.5287 23.7984 24.5287 23.1505 23.9996L18.2005 20.0396C17.8584 19.7866 17.3854 19.8196 17.1005 20.1166C16.8035 20.4136 16.7705 20.8866 17.0224 21.2166L17.1665 21.3596L22.1715 25.2646C22.7875 25.7486 23.5344 26.0126 24.3165 26.0126C25.0964 26.0126 25.8565 25.7486 26.4714 25.2646L31.4335 21.2936Z" fill="white"/>
</svg>
