<svg width="18" height="21" viewBox="0 0 18 21" fill="none" xmlns="http://www.w3.org/2000/svg">
<mask id="mask0_742_4817" style="mask-type:luminance" maskUnits="userSpaceOnUse" x="0" y="0" width="18" height="21">
<path fill-rule="evenodd" clip-rule="evenodd" d="M0.000305176 0.511719H17.053V20.3652H0.000305176V0.511719Z" fill="white"/>
</mask>
<g mask="url(#mask0_742_4817)">
<path fill-rule="evenodd" clip-rule="evenodd" d="M4.57341 2.01172C2.91641 2.01172 1.54041 3.35372 1.50141 5.00872V15.7037C1.46441 17.4167 2.81441 18.8277 4.51041 18.8657H12.5744C14.2434 18.7967 15.5654 17.4097 15.5534 15.7097V6.83972L10.9184 2.01172H4.58541H4.57341ZM4.58541 20.3657H4.47641C1.95441 20.3087 -0.0535914 18.2107 0.00140861 15.6877V4.99072C0.0594086 2.50972 2.10841 0.511719 4.57141 0.511719H4.58841H11.2384C11.4424 0.511719 11.6374 0.594719 11.7794 0.741719L16.8444 6.01872C16.9784 6.15772 17.0534 6.34472 17.0534 6.53772V15.7037C17.0714 18.2127 15.1174 20.2627 12.6044 20.3647L4.58541 20.3657Z" fill="#212121"/>
</g>
<path fill-rule="evenodd" clip-rule="evenodd" d="M10.7887 14.6084H5.3887C4.9747 14.6084 4.6387 14.2724 4.6387 13.8584C4.6387 13.4444 4.9747 13.1084 5.3887 13.1084H10.7887C11.2027 13.1084 11.5387 13.4444 11.5387 13.8584C11.5387 14.2724 11.2027 14.6084 10.7887 14.6084Z" fill="#212121"/>
<path fill-rule="evenodd" clip-rule="evenodd" d="M8.74382 10.8564H5.38782C4.97382 10.8564 4.63782 10.5204 4.63782 10.1064C4.63782 9.69245 4.97382 9.35645 5.38782 9.35645H8.74382C9.15782 9.35645 9.49382 9.69245 9.49382 10.1064C9.49382 10.5204 9.15782 10.8564 8.74382 10.8564Z" fill="#212121"/>
<path fill-rule="evenodd" clip-rule="evenodd" d="M16.2985 7.48449H13.5435C11.7135 7.47949 10.2255 5.98749 10.2255 4.15949V1.25049C10.2255 0.836488 10.5615 0.500488 10.9755 0.500488C11.3895 0.500488 11.7255 0.836488 11.7255 1.25049V4.15949C11.7255 5.16349 12.5425 5.98149 13.5455 5.98449H16.2985C16.7125 5.98449 17.0485 6.32049 17.0485 6.73449C17.0485 7.14849 16.7125 7.48449 16.2985 7.48449Z" fill="#212121"/>
</svg>
