<svg width="24" height="25" viewBox="0 0 24 25" fill="none" xmlns="http://www.w3.org/2000/svg">
<mask id="mask0_743_4816" style="mask-type:luminance" maskUnits="userSpaceOnUse" x="3" y="2" width="18" height="21">
<path fill-rule="evenodd" clip-rule="evenodd" d="M3.00031 2.51172H20.053V22.3652H3.00031V2.51172Z" fill="white"/>
</mask>
<g mask="url(#mask0_743_4816)">
<path fill-rule="evenodd" clip-rule="evenodd" d="M7.57341 4.01172C5.91641 4.01172 4.54041 5.35372 4.50141 7.00872V17.7037C4.46441 19.4167 5.81441 20.8277 7.51041 20.8657H15.5744C17.2434 20.7967 18.5654 19.4097 18.5534 17.7097V8.83972L13.9184 4.01172H7.58541H7.57341ZM7.58541 22.3657H7.47641C4.95441 22.3087 2.94641 20.2107 3.00141 17.6877V6.99072C3.05941 4.50972 5.10841 2.51172 7.57141 2.51172H7.58841H14.2384C14.4424 2.51172 14.6374 2.59472 14.7794 2.74172L19.8444 8.01872C19.9784 8.15772 20.0534 8.34472 20.0534 8.53772V17.7037C20.0714 20.2127 18.1174 22.2627 15.6044 22.3647L7.58541 22.3657Z" fill="#212121"/>
</g>
<path fill-rule="evenodd" clip-rule="evenodd" d="M13.7887 16.6084H8.3887C7.9747 16.6084 7.6387 16.2724 7.6387 15.8584C7.6387 15.4444 7.9747 15.1084 8.3887 15.1084H13.7887C14.2027 15.1084 14.5387 15.4444 14.5387 15.8584C14.5387 16.2724 14.2027 16.6084 13.7887 16.6084Z" fill="#212121"/>
<path fill-rule="evenodd" clip-rule="evenodd" d="M11.7438 12.8564H8.38782C7.97382 12.8564 7.63782 12.5204 7.63782 12.1064C7.63782 11.6924 7.97382 11.3564 8.38782 11.3564H11.7438C12.1578 11.3564 12.4938 11.6924 12.4938 12.1064C12.4938 12.5204 12.1578 12.8564 11.7438 12.8564Z" fill="#212121"/>
<path fill-rule="evenodd" clip-rule="evenodd" d="M19.2985 9.48449H16.5435C14.7135 9.47949 13.2255 7.98749 13.2255 6.15949V3.25049C13.2255 2.83649 13.5615 2.50049 13.9755 2.50049C14.3895 2.50049 14.7255 2.83649 14.7255 3.25049V6.15949C14.7255 7.16349 15.5425 7.98149 16.5455 7.98449H19.2985C19.7125 7.98449 20.0485 8.32049 20.0485 8.73449C20.0485 9.14849 19.7125 9.48449 19.2985 9.48449Z" fill="#212121"/>
</svg>
