<svg width="22" height="22" viewBox="0 0 22 22" fill="none" xmlns="http://www.w3.org/2000/svg">
<path fill-rule="evenodd" clip-rule="evenodd" d="M7.12869 15.1355C7.12869 14.7213 7.46448 14.3855 7.87869 14.3855H13.6937C14.1079 14.3855 14.4437 14.7213 14.4437 15.1355C14.4437 15.5497 14.1079 15.8855 13.6937 15.8855H7.87869C7.46448 15.8855 7.12869 15.5497 7.12869 15.1355Z" fill="#9E9E9E"/>
<path fill-rule="evenodd" clip-rule="evenodd" d="M5.60984 4.97765C5.19729 5.35978 4.82688 5.68822 4.4976 5.97845C4.45113 6.01941 4.40562 6.05949 4.36103 6.09875C4.08212 6.34435 3.83923 6.55824 3.62106 6.75963C3.11575 7.22608 2.79655 7.57827 2.57083 7.97216C2.11833 8.76176 1.94998 9.86897 1.94998 12.713C1.94998 14.7691 2.07304 16.2451 2.35114 17.3153C2.62414 18.3658 3.0311 18.9679 3.5702 19.3548C4.13324 19.759 4.93702 19.9997 6.14743 20.1245C7.35664 20.2491 8.865 20.25 10.786 20.25C12.707 20.25 14.2153 20.2491 15.4245 20.1245C16.6349 19.9997 17.4387 19.759 18.0018 19.3548C18.5409 18.9679 18.9478 18.3658 19.2208 17.3153C19.4989 16.2451 19.622 14.7691 19.622 12.713C19.622 9.86889 19.4539 8.76166 19.0016 7.97204C18.776 7.57818 18.4569 7.22601 17.9517 6.75958C17.7334 6.55801 17.4903 6.34391 17.211 6.09801C17.1667 6.05898 17.1215 6.01914 17.0753 5.97843C16.746 5.6882 16.3756 5.35976 15.9631 4.97762C15.7189 4.78041 15.4659 4.56703 15.2037 4.34588C14.6325 3.86414 14.0177 3.34554 13.3544 2.87695C12.3694 2.18118 11.4775 1.75 10.758 1.75C10.0409 1.75 9.16103 2.18121 8.18911 2.87803C7.55482 3.33278 6.9746 3.827 6.4294 4.29137C6.14774 4.53128 5.87542 4.76323 5.60984 4.97765ZM7.3151 1.65897C8.31543 0.941785 9.53211 0.25 10.758 0.25C11.9805 0.25 13.207 0.936325 14.2198 1.6518C14.9358 2.15759 15.6441 2.75449 16.237 3.25416C16.4899 3.46729 16.7218 3.66274 16.9244 3.82587C16.938 3.83681 16.9512 3.84822 16.964 3.86008C17.37 4.23662 17.7354 4.5607 18.0672 4.85318C18.1122 4.89284 18.1567 4.93205 18.2007 4.97083C18.4786 5.21553 18.7368 5.4429 18.9692 5.65748C19.5085 6.15537 19.9624 6.63157 20.3031 7.22646C20.9836 8.41434 21.122 9.92611 21.122 12.713C21.122 14.8004 21.0002 16.432 20.6726 17.6926C20.3399 18.9727 19.7805 19.9245 18.8765 20.5734C17.9964 21.2051 16.8803 21.4824 15.5783 21.6166C14.2837 21.75 12.6994 21.75 10.8231 21.75H10.7488C8.87256 21.75 7.28829 21.75 5.99363 21.6166C4.69163 21.4824 3.5756 21.2051 2.69551 20.5734C1.79149 19.9245 1.23202 18.9727 0.899355 17.6926C0.571794 16.432 0.449982 14.8004 0.449982 12.713C0.449982 9.92603 0.588635 8.41424 1.26939 7.22634C1.61028 6.63148 2.06428 6.1553 2.60363 5.65743C2.83581 5.4431 3.09374 5.216 3.37129 4.97161C3.41563 4.93257 3.46046 4.89309 3.50578 4.85316C3.83759 4.56069 4.20298 4.23661 4.60899 3.86008C4.62182 3.84818 4.63506 3.83674 4.64869 3.82577C4.86081 3.65502 5.10837 3.44454 5.37991 3.21367C5.95389 2.72566 6.63503 2.14655 7.3151 1.65897Z" fill="#9E9E9E"/>
</svg>
