<svg width="20" height="19" viewBox="0 0 20 19" fill="none" xmlns="http://www.w3.org/2000/svg">
<path d="M14.8395 3.29639C15.2192 3.29639 15.533 3.57854 15.5827 3.94462L15.5895 4.04639V17.6642C15.5895 18.0784 15.2538 18.4142 14.8395 18.4142C14.4598 18.4142 14.146 18.132 14.0964 17.7659L14.0895 17.6642V4.04639C14.0895 3.63217 14.4253 3.29639 14.8395 3.29639Z" fill="#212121"/>
<path d="M18.3857 13.0393C18.6779 12.7457 19.1527 12.7446 19.4463 13.0368C19.7132 13.3025 19.7384 13.7191 19.5212 14.0132L19.4488 14.0975L15.371 18.1941C15.1045 18.4619 14.6862 18.4862 14.3921 18.2672L14.3079 18.1941L10.2301 14.0975C9.93789 13.8039 9.93899 13.329 10.2326 13.0368C10.4994 12.7712 10.9162 12.7479 11.2093 12.9664L11.2932 13.0393L14.839 16.6012L18.3857 13.0393Z" fill="#212121"/>
<path d="M4.9111 0.583008C5.2908 0.583008 5.60459 0.865162 5.65426 1.23124L5.6611 1.33301V14.9508C5.6611 15.365 5.32532 15.7008 4.9111 15.7008C4.53141 15.7008 4.21761 15.4186 4.16795 15.0526L4.1611 14.9508V1.33301C4.1611 0.918794 4.49689 0.583008 4.9111 0.583008Z" fill="#212121"/>
<path d="M4.37966 0.803416C4.64618 0.535663 5.06443 0.511321 5.35854 0.730393L5.44277 0.803416L9.52055 4.90008C9.81276 5.19365 9.81166 5.66852 9.51809 5.96074C9.25121 6.22639 8.83449 6.24963 8.54139 6.0311L8.45744 5.95829L4.91099 2.39519L1.36499 5.95829C1.09934 6.22517 0.682732 6.25034 0.388618 6.03316L0.304332 5.96074C0.0374507 5.69509 0.012282 5.27848 0.229457 4.98437L0.301881 4.90008L4.37966 0.803416Z" fill="#212121"/>
</svg>
