<svg width="17" height="20" viewBox="0 0 17 20" fill="none" xmlns="http://www.w3.org/2000/svg">
<path fill-rule="evenodd" clip-rule="evenodd" d="M8.65048 6.5C7.68548 6.5 6.90048 7.285 6.90048 8.251C6.90048 9.216 7.68548 10 8.65048 10C9.61548 10 10.4005 9.216 10.4005 8.251C10.4005 7.285 9.61548 6.5 8.65048 6.5ZM8.65048 11.5C6.85848 11.5 5.40048 10.043 5.40048 8.251C5.40048 6.458 6.85848 5 8.65048 5C10.4425 5 11.9005 6.458 11.9005 8.251C11.9005 10.043 10.4425 11.5 8.65048 11.5Z" fill="#9E9E9E"/>
<mask id="mask0_666_1929" style="mask-type:luminance" maskUnits="userSpaceOnUse" x="0" y="0" width="17" height="20">
<path fill-rule="evenodd" clip-rule="evenodd" d="M0.399994 0H16.8995V19.5H0.399994V0Z" fill="white"/>
</mask>
<g mask="url(#mask0_666_1929)">
<path fill-rule="evenodd" clip-rule="evenodd" d="M8.64951 1.5C4.92751 1.5 1.89951 4.557 1.89951 8.313C1.89951 13.092 7.52351 17.748 8.64951 17.996C9.77551 17.747 15.3995 13.091 15.3995 8.313C15.3995 4.557 12.3715 1.5 8.64951 1.5ZM8.64951 19.5C6.85551 19.5 0.399506 13.948 0.399506 8.313C0.399506 3.729 4.10051 0 8.64951 0C13.1985 0 16.8995 3.729 16.8995 8.313C16.8995 13.948 10.4435 19.5 8.64951 19.5Z" fill="#9E9E9E"/>
</g>
</svg>
