<svg width="19" height="17" viewBox="0 0 19 17" fill="none" xmlns="http://www.w3.org/2000/svg">
<path fill-rule="evenodd" clip-rule="evenodd" d="M9.81394 9.72123C9.25644 9.72123 8.70061 9.53706 8.23561 9.16873L4.49811 6.1554C4.22895 5.93873 4.18728 5.54456 4.40311 5.27623C4.62061 5.00873 5.01394 4.96623 5.28228 5.18206L9.01645 8.19206C9.48561 8.56373 10.1464 8.56373 10.6189 8.18873L14.3156 5.18373C14.5839 4.96456 14.9773 5.00623 15.1956 5.27456C15.4131 5.54206 15.3723 5.9354 15.1048 6.15373L11.4014 9.16373C10.9331 9.5354 10.3731 9.72123 9.81394 9.72123Z" fill="#212121"/>
<mask id="mask0_35_8674" style="mask-type:luminance" maskUnits="userSpaceOnUse" x="0" y="0" width="19" height="17">
<path fill-rule="evenodd" clip-rule="evenodd" d="M0.833252 0.166992H18.7498V16.417H0.833252V0.166992Z" fill="white"/>
</mask>
<g mask="url(#mask0_35_8674)">
<path fill-rule="evenodd" clip-rule="evenodd" d="M5.69909 15.167H13.8824C13.8841 15.1653 13.8908 15.167 13.8958 15.167C14.8466 15.167 15.6899 14.827 16.3366 14.1812C17.0874 13.4337 17.4999 12.3595 17.4999 11.157V5.43366C17.4999 3.10616 15.9783 1.41699 13.8824 1.41699H5.70075C3.60492 1.41699 2.08325 3.10616 2.08325 5.43366V11.157C2.08325 12.3595 2.49659 13.4337 3.24659 14.1812C3.89325 14.827 4.73742 15.167 5.68742 15.167H5.69909ZM5.68492 16.417C4.39909 16.417 3.25075 15.9503 2.36409 15.067C1.37659 14.082 0.833252 12.6937 0.833252 11.157V5.43366C0.833252 2.43116 2.92575 0.166992 5.70075 0.166992H13.8824C16.6574 0.166992 18.7499 2.43116 18.7499 5.43366V11.157C18.7499 12.6937 18.2066 14.082 17.2191 15.067C16.3333 15.9495 15.1841 16.417 13.8958 16.417H13.8824H5.70075H5.68492Z" fill="#212121"/>
</g>
</svg>
