<svg width="28" height="28" viewBox="0 0 28 28" fill="none" xmlns="http://www.w3.org/2000/svg">
<path d="M14.0001 8.16667C14.4616 8.16667 14.9127 8.02982 15.2964 7.77343C15.6801 7.51704 15.9792 7.15262 16.1558 6.72626C16.3324 6.2999 16.3786 5.83075 16.2886 5.37812C16.1986 4.9255 15.9763 4.50974 15.65 4.18342C15.3237 3.8571 14.9079 3.63487 14.4553 3.54484C14.0027 3.4548 13.5335 3.50101 13.1072 3.67762C12.6808 3.85422 12.3164 4.15329 12.06 4.537C11.8036 4.92072 11.6667 5.37184 11.6667 5.83333C11.6667 6.45217 11.9126 7.04567 12.3502 7.48325C12.7878 7.92084 13.3812 8.16667 14.0001 8.16667ZM14.0001 19.8333C13.5386 19.8333 13.0875 19.9702 12.7038 20.2266C12.32 20.483 12.021 20.8474 11.8444 21.2737C11.6678 21.7001 11.6216 22.1693 11.7116 22.6219C11.8016 23.0745 12.0238 23.4903 12.3502 23.8166C12.6765 24.1429 13.0922 24.3651 13.5449 24.4552C13.9975 24.5452 14.4666 24.499 14.893 24.3224C15.3194 24.1458 15.6838 23.8467 15.9402 23.463C16.1966 23.0793 16.3334 22.6282 16.3334 22.1667C16.3334 21.5478 16.0876 20.9543 15.65 20.5168C15.2124 20.0792 14.6189 19.8333 14.0001 19.8333ZM14.0001 11.6667C13.5386 11.6667 13.0875 11.8035 12.7038 12.0599C12.32 12.3163 12.021 12.6807 11.8444 13.1071C11.6678 13.5334 11.6216 14.0026 11.7116 14.4552C11.8016 14.9078 12.0238 15.3236 12.3502 15.6499C12.6765 15.9762 13.0922 16.1985 13.5449 16.2885C13.9975 16.3785 14.4666 16.3323 14.893 16.1557C15.3194 15.9791 15.6838 15.68 15.9402 15.2963C16.1966 14.9126 16.3334 14.4615 16.3334 14C16.3334 13.3812 16.0876 12.7877 15.65 12.3501C15.2124 11.9125 14.6189 11.6667 14.0001 11.6667Z" fill="#212121"/>
</svg>
