<svg width="24" height="25" viewBox="0 0 24 25" fill="none" xmlns="http://www.w3.org/2000/svg">
<path d="M19.875 8C19.3558 8 18.8483 8.15395 18.4166 8.44239C17.985 8.73083 17.6485 9.1408 17.4498 9.62046C17.2511 10.1001 17.1992 10.6279 17.3004 11.1371C17.4017 11.6463 17.6517 12.114 18.0188 12.4812C18.386 12.8483 18.8537 13.0983 19.3629 13.1996C19.8721 13.3008 20.3999 13.2489 20.8795 13.0502C21.3592 12.8515 21.7692 12.5151 22.0576 12.0834C22.346 11.6517 22.5 11.1442 22.5 10.625C22.5 9.92881 22.2234 9.26113 21.7312 8.76885C21.2389 8.27656 20.5712 8 19.875 8ZM19.875 11.75C19.6525 11.75 19.435 11.684 19.25 11.5604C19.065 11.4368 18.9208 11.2611 18.8356 11.0555C18.7505 10.85 18.7282 10.6238 18.7716 10.4055C18.815 10.1873 18.9222 9.98684 19.0795 9.82951C19.2368 9.67217 19.4373 9.56503 19.6555 9.52162C19.8738 9.47821 20.1 9.50049 20.3055 9.58564C20.5111 9.67078 20.6868 9.81498 20.8104 9.99998C20.934 10.185 21 10.4025 21 10.625C21 10.9234 20.8815 11.2095 20.6705 11.4205C20.4595 11.6315 20.1734 11.75 19.875 11.75ZM6.75 10.625C6.75 10.1058 6.59605 9.59831 6.30761 9.16663C6.01917 8.73495 5.6092 8.3985 5.12955 8.19982C4.64989 8.00114 4.12209 7.94915 3.61289 8.05044C3.10369 8.15173 2.63596 8.40173 2.26885 8.76885C1.90173 9.13596 1.65173 9.60369 1.55044 10.1129C1.44915 10.6221 1.50114 11.1499 1.69982 11.6295C1.8985 12.1092 2.23495 12.5192 2.66663 12.8076C3.09831 13.096 3.60583 13.25 4.125 13.25C4.82119 13.25 5.48887 12.9734 5.98116 12.4812C6.47344 11.9889 6.75 11.3212 6.75 10.625ZM4.125 11.75C3.9025 11.75 3.68499 11.684 3.49998 11.5604C3.31498 11.4368 3.17079 11.2611 3.08564 11.0555C3.00049 10.85 2.97821 10.6238 3.02162 10.4055C3.06503 10.1873 3.17217 9.98684 3.32951 9.82951C3.48684 9.67217 3.6873 9.56503 3.90552 9.52162C4.12375 9.47821 4.34995 9.50049 4.55552 9.58564C4.76109 9.67078 4.93679 9.81498 5.0604 9.99998C5.18402 10.185 5.25 10.4025 5.25 10.625C5.25 10.9234 5.13147 11.2095 4.9205 11.4205C4.70952 11.6315 4.42337 11.75 4.125 11.75ZM8.625 8.75C9.14418 8.75 9.65169 8.59605 10.0834 8.30761C10.5151 8.01917 10.8515 7.6092 11.0502 7.12954C11.2489 6.64989 11.3008 6.12209 11.1996 5.61289C11.0983 5.10369 10.8483 4.63596 10.4812 4.26885C10.114 3.90173 9.64631 3.65173 9.13711 3.55044C8.62791 3.44915 8.10011 3.50114 7.62046 3.69982C7.1408 3.8985 6.73083 4.23495 6.44239 4.66663C6.15395 5.09831 6 5.60583 6 6.125C6 6.82119 6.27656 7.48887 6.76885 7.98116C7.26113 8.47344 7.92881 8.75 8.625 8.75ZM8.625 5C8.84751 5 9.06501 5.06598 9.25002 5.1896C9.43502 5.31321 9.57922 5.48892 9.66437 5.69448C9.74951 5.90005 9.77179 6.12625 9.72838 6.34448C9.68498 6.56271 9.57783 6.76316 9.4205 6.9205C9.26316 7.07783 9.06271 7.18498 8.84448 7.22838C8.62625 7.27179 8.40005 7.24951 8.19448 7.16437C7.98892 7.07922 7.81321 6.93502 7.6896 6.75002C7.56598 6.56501 7.5 6.34751 7.5 6.125C7.5 5.82663 7.61853 5.54048 7.82951 5.32951C8.04048 5.11853 8.32663 5 8.625 5ZM15.375 8.75C15.8942 8.75 16.4017 8.59605 16.8334 8.30761C17.2651 8.01917 17.6015 7.6092 17.8002 7.12954C17.9989 6.64989 18.0508 6.12209 17.9496 5.61289C17.8483 5.10369 17.5983 4.63596 17.2312 4.26885C16.864 3.90173 16.3963 3.65173 15.8871 3.55044C15.3779 3.44915 14.8501 3.50114 14.3705 3.69982C13.8908 3.8985 13.4808 4.23495 13.1924 4.66663C12.904 5.09831 12.75 5.60583 12.75 6.125C12.75 6.82119 13.0266 7.48887 13.5188 7.98116C14.0111 8.47344 14.6788 8.75 15.375 8.75ZM15.375 5C15.5975 5 15.815 5.06598 16 5.1896C16.185 5.31321 16.3292 5.48892 16.4144 5.69448C16.4995 5.90005 16.5218 6.12625 16.4784 6.34448C16.435 6.56271 16.3278 6.76316 16.1705 6.9205C16.0132 7.07783 15.8127 7.18498 15.5945 7.22838C15.3762 7.27179 15.1501 7.24951 14.9445 7.16437C14.7389 7.07922 14.5632 6.93502 14.4396 6.75002C14.316 6.56501 14.25 6.34751 14.25 6.125C14.25 5.82663 14.3685 5.54048 14.5795 5.32951C14.7905 5.11853 15.0766 5 15.375 5ZM17.5425 14.4556C17.1615 14.2455 16.8258 13.9622 16.5544 13.6222C16.283 13.2821 16.0813 12.8918 15.9609 12.4738C15.7116 11.6162 15.1906 10.8627 14.4763 10.3265C13.7621 9.79039 12.8931 9.50053 12 9.50053C11.1069 9.50053 10.2379 9.79039 9.52366 10.3265C8.8094 10.8627 8.28843 11.6162 8.03906 12.4738C7.79818 13.315 7.23345 14.0264 6.46875 14.4519C5.73518 14.8488 5.15487 15.479 4.81962 16.2427C4.48437 17.0065 4.41331 17.8602 4.61768 18.6688C4.82205 19.4775 5.29018 20.1949 5.94804 20.7077C6.60589 21.2205 7.41592 21.4993 8.25 21.5C8.74984 21.5014 9.24479 21.4016 9.705 21.2066C11.1722 20.6015 12.8193 20.6015 14.2866 21.2066C15.1753 21.5931 16.1791 21.6205 17.0876 21.2832C17.9961 20.9458 18.7387 20.2698 19.1598 19.3969C19.5808 18.5241 19.6476 17.5221 19.3461 16.6011C19.0446 15.68 18.3982 14.9115 17.5425 14.4566V14.4556ZM15.75 20C15.4455 20.0003 15.1441 19.9387 14.8641 19.8191C13.0271 19.0603 10.9644 19.0603 9.1275 19.8191C8.59369 20.0489 7.99164 20.0633 7.44747 19.8592C6.9033 19.655 6.45923 19.2483 6.20827 18.724C5.95731 18.1998 5.91893 17.5988 6.10118 17.0469C6.28342 16.4951 6.67215 16.0351 7.18594 15.7634C7.73835 15.4584 8.22521 15.0474 8.61868 14.554C9.01216 14.0607 9.30452 13.4946 9.47906 12.8881C9.63756 12.3421 9.96904 11.8623 10.4237 11.5209C10.8783 11.1795 11.4315 10.9949 12 10.9949C12.5685 10.9949 13.1217 11.1795 13.5763 11.5209C14.031 11.8623 14.3624 12.3421 14.5209 12.8881C14.696 13.4957 14.9893 14.0627 15.3839 14.5568C15.7786 15.0508 16.2668 15.4621 16.8206 15.7672C17.263 16.0044 17.6133 16.3828 17.8158 16.842C18.0184 17.3013 18.0616 17.8151 17.9385 18.3017C17.8154 18.7884 17.5331 19.2199 17.1366 19.5276C16.74 19.8353 16.2519 20.0016 15.75 20Z" fill="#212121"/>
</svg>
