<svg width="49" height="48" viewBox="0 0 49 48" fill="none" xmlns="http://www.w3.org/2000/svg">
<path d="M0.25 24C0.25 10.7452 10.9952 0 24.25 0C37.5048 0 48.25 10.7452 48.25 24C48.25 37.2548 37.5048 48 24.25 48C10.9952 48 0.25 37.2548 0.25 24Z" fill="#2b7c9a"/>
<path d="M13.2602 22.5127C13.2627 22.8613 13.3773 23.1999 13.5869 23.4784C13.7965 23.757 14.0902 23.9607 14.4245 24.0596L22.3198 26.4892L24.7494 34.3844C24.8484 34.7187 25.0522 35.0122 25.3307 35.2219C25.6092 35.4315 25.9477 35.5461 26.2963 35.5487H26.3272C26.669 35.5519 27.0031 35.4473 27.2821 35.2498C27.5611 35.0523 27.7708 34.7719 27.8813 34.4484L34.6071 16.3077C34.6093 16.3023 34.611 16.2968 34.6123 16.2912C34.7128 15.9992 34.7294 15.6848 34.6601 15.3838C34.5908 15.0828 34.4384 14.8074 34.2203 14.5887C34.0022 14.3701 33.7271 14.217 33.4263 14.147C33.1255 14.077 32.8111 14.0927 32.5188 14.1926L32.5023 14.1977L14.3606 20.9277C14.0321 21.0399 13.7481 21.2543 13.5501 21.5395C13.3522 21.8247 13.2506 22.1657 13.2602 22.5127Z" fill="white"/>
</svg>
