<svg width="49" height="48" viewBox="0 0 49 48" fill="none" xmlns="http://www.w3.org/2000/svg">
<path d="M0.75 24C0.75 10.7452 11.4952 0 24.75 0C38.0048 0 48.75 10.7452 48.75 24C48.75 37.2548 38.0048 48 24.75 48C11.4952 48 0.75 37.2548 0.75 24Z" fill="#2b7c9a"/>
<path d="M27.4101 16.8389C26.8865 16.7422 26.4056 17.0764 26.3059 17.5875C26.2062 18.0987 26.5414 18.5977 27.0508 18.6978C28.5845 18.9967 29.7687 20.1839 30.0689 21.7229V21.724C30.1543 22.167 30.5443 22.4891 30.9935 22.4891C31.0537 22.4891 31.114 22.4836 31.1753 22.4726C31.6847 22.3703 32.02 21.8724 31.9203 21.3601C31.4722 19.0616 29.703 17.2863 27.4101 16.8389Z" fill="white"/>
<path d="M27.3416 13.0087C27.0962 12.9735 26.8497 13.0461 26.6536 13.2022C26.452 13.3605 26.3261 13.5891 26.2987 13.8452C26.2406 14.363 26.6142 14.8313 27.1312 14.8895C30.6971 15.2875 33.4687 18.0653 33.8696 21.6422C33.9233 22.1215 34.3253 22.4831 34.8052 22.4831C34.8413 22.4831 34.8764 22.4809 34.9125 22.4765C35.1634 22.449 35.3869 22.3248 35.5446 22.127C35.7013 21.9291 35.7725 21.6829 35.744 21.4311C35.2445 16.9682 31.7904 13.5045 27.3416 13.0087Z" fill="white"/>
<path fill-rule="evenodd" clip-rule="evenodd" d="M23.6849 25.0692C28.0729 29.456 29.0684 24.381 31.8622 27.1729C34.5557 29.8656 36.1038 30.4051 32.6912 33.8168C32.2637 34.1603 29.5478 38.2933 20.0031 28.7512C10.4572 19.208 14.5877 16.4893 14.9314 16.062C18.3523 12.6408 18.8824 14.1979 21.5759 16.8907C24.3698 19.6838 19.2969 20.6825 23.6849 25.0692Z" fill="white"/>
</svg>
