<svg width="17" height="20" viewBox="0 0 17 20" fill="none" xmlns="http://www.w3.org/2000/svg">
<path fill-rule="evenodd" clip-rule="evenodd" d="M8.08891 10.6188H8.12091C11.0489 10.6188 13.4299 8.23776 13.4299 5.30976C13.4299 2.38176 11.0489 -0.000244141 8.12091 -0.000244141C5.19191 -0.000244141 2.80991 2.38176 2.80991 5.30676C2.79991 8.22676 5.16691 10.6098 8.08891 10.6188ZM4.23791 5.30976C4.23791 3.16876 5.97991 1.42776 8.12091 1.42776C10.2609 1.42776 12.0019 3.16876 12.0019 5.30976C12.0019 7.44976 10.2609 9.19176 8.12091 9.19176H8.09191C5.95991 9.18376 4.23091 7.44376 4.23791 5.30976Z" fill="#9E9E9E"/>
<path fill-rule="evenodd" clip-rule="evenodd" d="M0.19989 16.1731C0.19989 19.8701 6.16189 19.8701 8.12089 19.8701C11.5199 19.8701 16.0399 19.4891 16.0399 16.1931C16.0399 12.4961 10.0799 12.4961 8.12089 12.4961C4.72089 12.4961 0.19989 12.8771 0.19989 16.1731ZM1.69989 16.1731C1.69989 14.7281 3.85989 13.9961 8.12089 13.9961C12.3809 13.9961 14.5399 14.7351 14.5399 16.1931C14.5399 17.6381 12.3809 18.3701 8.12089 18.3701C3.85989 18.3701 1.69989 17.6311 1.69989 16.1731Z" fill="#9E9E9E"/>
</svg>
