<svg width="15" height="17" viewBox="0 0 15 17" fill="none" xmlns="http://www.w3.org/2000/svg">
<path fill-rule="evenodd" clip-rule="evenodd" d="M7.2087 5.58301C6.40453 5.58301 5.75037 6.23717 5.75037 7.04217C5.75037 7.84634 6.40453 8.49967 7.2087 8.49967C8.01287 8.49967 8.66703 7.84634 8.66703 7.04217C8.66703 6.23717 8.01287 5.58301 7.2087 5.58301ZM7.2087 9.74967C5.71537 9.74967 4.50037 8.53551 4.50037 7.04217C4.50037 5.54801 5.71537 4.33301 7.2087 4.33301C8.70203 4.33301 9.91703 5.54801 9.91703 7.04217C9.91703 8.53551 8.70203 9.74967 7.2087 9.74967Z" fill="#212121"/>
<mask id="mask0_159_1601" style="mask-type:luminance" maskUnits="userSpaceOnUse" x="0" y="0" width="15" height="17">
<path fill-rule="evenodd" clip-rule="evenodd" d="M0.333313 0.166504H14.0829V16.4165H0.333313V0.166504Z" fill="white"/>
</mask>
<g mask="url(#mask0_159_1601)">
<path fill-rule="evenodd" clip-rule="evenodd" d="M7.20789 1.4165C4.10622 1.4165 1.58289 3.964 1.58289 7.094C1.58289 11.0765 6.26955 14.9565 7.20789 15.1632C8.14622 14.9557 12.8329 11.0757 12.8329 7.094C12.8329 3.964 10.3096 1.4165 7.20789 1.4165ZM7.20789 16.4165C5.71289 16.4165 0.332886 11.7898 0.332886 7.094C0.332886 3.274 3.41705 0.166504 7.20789 0.166504C10.9987 0.166504 14.0829 3.274 14.0829 7.094C14.0829 11.7898 8.70289 16.4165 7.20789 16.4165Z" fill="#212121"/>
</g>
</svg>
