<svg width="56" height="57" viewBox="0 0 56 57" fill="none" xmlns="http://www.w3.org/2000/svg">
<path d="M0 28.5C0 13.036 12.536 0.5 28 0.5C43.464 0.5 56 13.036 56 28.5C56 43.964 43.464 56.5 28 56.5C12.536 56.5 0 43.964 0 28.5Z" fill="#2b7c9a"/>
<path d="M39.008 17.5122C38.4244 16.9133 37.5607 16.6901 36.7554 16.925L17.976 22.386C17.1264 22.6221 16.5241 23.2997 16.3619 24.1606C16.1961 25.0367 16.775 26.1488 17.5314 26.6139L23.4033 30.2229C24.0055 30.5928 24.7828 30.5 25.2812 29.9974L32.0051 23.2316C32.3436 22.8793 32.9038 22.8793 33.2423 23.2316C33.5808 23.5722 33.5808 24.1242 33.2423 24.4765L26.5067 31.2434C26.0072 31.7449 25.9138 32.5259 26.2814 33.1319L29.8692 39.0626C30.2894 39.7673 31.013 40.1666 31.8067 40.1666C31.9001 40.1666 32.0051 40.1666 32.0985 40.1548C33.0089 40.0374 33.7325 39.415 34.0009 38.5342L39.5682 19.7788C39.8133 18.9802 39.5916 18.1112 39.008 17.5122Z" fill="white"/>
</svg>
