<svg width="28" height="28" viewBox="0 0 28 28" fill="none" xmlns="http://www.w3.org/2000/svg">
<path d="M19.2503 17.5001C18.6666 17.4999 18.0888 17.6168 17.5511 17.844C17.0134 18.0711 16.5267 18.4038 16.12 18.8224L11.0778 15.5816C11.4744 14.5646 11.4744 13.4356 11.0778 12.4185L16.12 9.17774C16.8773 9.95356 17.8958 10.4205 18.9779 10.4881C20.06 10.5557 21.1286 10.219 21.9766 9.54343C22.8246 8.86786 23.3916 7.90147 23.5675 6.83164C23.7435 5.7618 23.5159 4.66474 22.929 3.75315C22.3421 2.84155 21.4375 2.18037 20.3908 1.8978C19.3441 1.61522 18.2297 1.73137 17.2637 2.22374C16.2978 2.71611 15.549 3.54961 15.1627 4.56265C14.7764 5.57569 14.78 6.6961 15.1728 7.70665L10.1306 10.9474C9.5234 10.3241 8.74412 9.89595 7.89237 9.71777C7.04061 9.5396 6.15507 9.61948 5.34895 9.9472C4.54282 10.2749 3.85274 10.8356 3.36691 11.5575C2.88108 12.2795 2.62158 13.1299 2.62158 14.0001C2.62158 14.8703 2.88108 15.7207 3.36691 16.4426C3.85274 17.1646 4.54282 17.7253 5.34895 18.053C6.15507 18.3807 7.04061 18.4606 7.89237 18.2824C8.74412 18.1042 9.5234 17.6761 10.1306 17.0527L15.1728 20.2935C14.835 21.1647 14.785 22.1212 15.0301 23.0229C15.2753 23.9245 15.8026 24.724 16.535 25.3043C17.2674 25.8845 18.1664 26.2151 19.1002 26.2475C20.034 26.2799 20.9537 26.0124 21.7245 25.4843C22.4954 24.9562 23.0769 24.1952 23.3839 23.3127C23.691 22.4302 23.7074 21.4726 23.4308 20.5801C23.1542 19.6875 22.5992 18.907 21.8469 18.3528C21.0946 17.7986 20.1847 17.4997 19.2503 17.5001ZM19.2503 3.50009C19.7694 3.50009 20.277 3.65404 20.7086 3.94248C21.1403 4.23092 21.4768 4.64089 21.6754 5.12054C21.8741 5.6002 21.9261 6.128 21.8248 6.6372C21.7235 7.1464 21.4735 7.61413 21.1064 7.98124C20.7393 8.34835 20.2716 8.59836 19.7624 8.69965C19.2532 8.80093 18.7254 8.74895 18.2457 8.55027C17.7661 8.35159 17.3561 8.01514 17.0677 7.58346C16.7792 7.15178 16.6253 6.64426 16.6253 6.12509C16.6253 5.42889 16.9018 4.76121 17.3941 4.26893C17.8864 3.77665 18.5541 3.50009 19.2503 3.50009ZM7.00026 16.6251C6.48109 16.6251 5.97357 16.4711 5.54189 16.1827C5.11021 15.8943 4.77376 15.4843 4.57508 15.0046C4.3764 14.525 4.32442 13.9972 4.4257 13.488C4.52699 12.9788 4.777 12.511 5.14411 12.1439C5.51122 11.7768 5.97895 11.5268 6.48815 11.4255C6.99735 11.3242 7.52515 11.3762 8.00481 11.5749C8.48446 11.7736 8.89443 12.11 9.18287 12.5417C9.47131 12.9734 9.62526 13.4809 9.62526 14.0001C9.62526 14.6963 9.3487 15.364 8.85642 15.8562C8.36414 16.3485 7.69646 16.6251 7.00026 16.6251ZM19.2503 24.5001C18.7311 24.5001 18.2236 24.3461 17.7919 24.0577C17.3602 23.7693 17.0238 23.3593 16.8251 22.8796C16.6264 22.4 16.5744 21.8722 16.6757 21.363C16.777 20.8538 17.027 20.386 17.3941 20.0189C17.7612 19.6518 18.229 19.4018 18.7382 19.3005C19.2474 19.1992 19.7752 19.2512 20.2548 19.4499C20.7345 19.6486 21.1444 19.985 21.4329 20.4167C21.7213 20.8484 21.8753 21.3559 21.8753 21.8751C21.8753 22.5713 21.5987 23.239 21.1064 23.7312C20.6141 24.2235 19.9465 24.5001 19.2503 24.5001Z" fill="#212121"/>
</svg>
