<svg width="18" height="17" viewBox="0 0 18 17" fill="none" xmlns="http://www.w3.org/2000/svg">
<path d="M9 0.375C7.39303 0.375 5.82214 0.851523 4.486 1.74431C3.14985 2.6371 2.10844 3.90605 1.49348 5.3907C0.87852 6.87535 0.717618 8.50901 1.03112 10.0851C1.34463 11.6612 2.11846 13.1089 3.25476 14.2452C4.39106 15.3815 5.8388 16.1554 7.4149 16.4689C8.99099 16.7824 10.6247 16.6215 12.1093 16.0065C13.594 15.3916 14.8629 14.3502 15.7557 13.014C16.6485 11.6779 17.125 10.107 17.125 8.5C17.1227 6.34581 16.266 4.28051 14.7427 2.75727C13.2195 1.23403 11.1542 0.377275 9 0.375ZM9 15.375C7.64026 15.375 6.31105 14.9718 5.18046 14.2164C4.04987 13.4609 3.16868 12.3872 2.64833 11.1309C2.12798 9.87471 1.99183 8.49237 2.2571 7.15875C2.52238 5.82513 3.17716 4.60013 4.13864 3.63864C5.10013 2.67716 6.32514 2.02237 7.65876 1.7571C8.99238 1.49183 10.3747 1.62798 11.631 2.14833C12.8872 2.66868 13.9609 3.54987 14.7164 4.68045C15.4718 5.81104 15.875 7.14025 15.875 8.5C15.8729 10.3227 15.1479 12.0702 13.8591 13.3591C12.5702 14.6479 10.8227 15.3729 9 15.375ZM5.25 6.9375C5.25 6.75208 5.30499 6.57082 5.408 6.41665C5.51101 6.26248 5.65743 6.14232 5.82874 6.07136C6.00004 6.00041 6.18854 5.98184 6.3704 6.01801C6.55226 6.05419 6.7193 6.14348 6.85042 6.27459C6.98153 6.4057 7.07082 6.57275 7.10699 6.7546C7.14316 6.93646 7.1246 7.12496 7.05364 7.29627C6.98268 7.46757 6.86252 7.61399 6.70835 7.717C6.55418 7.82002 6.37292 7.875 6.1875 7.875C5.93886 7.875 5.70041 7.77623 5.52459 7.60041C5.34878 7.4246 5.25 7.18614 5.25 6.9375ZM12.75 6.9375C12.75 7.12292 12.695 7.30418 12.592 7.45835C12.489 7.61252 12.3426 7.73268 12.1713 7.80364C12 7.87459 11.8115 7.89316 11.6296 7.85699C11.4477 7.82081 11.2807 7.73152 11.1496 7.60041C11.0185 7.4693 10.9292 7.30225 10.893 7.1204C10.8568 6.93854 10.8754 6.75004 10.9464 6.57873C11.0173 6.40743 11.1375 6.26101 11.2917 6.158C11.4458 6.05498 11.6271 6 11.8125 6C12.0611 6 12.2996 6.09877 12.4754 6.27459C12.6512 6.4504 12.75 6.68886 12.75 6.9375ZM12.6664 10.6875C11.8625 12.0773 10.5258 12.875 9 12.875C7.47422 12.875 6.13829 12.0781 5.33438 10.6875C5.28916 10.6164 5.25879 10.5368 5.24511 10.4536C5.23143 10.3705 5.23472 10.2854 5.25477 10.2035C5.27483 10.1216 5.31123 10.0447 5.36181 9.97723C5.41238 9.90979 5.47607 9.85328 5.54905 9.8111C5.62203 9.76891 5.70278 9.74193 5.78646 9.73176C5.87014 9.7216 5.95501 9.72847 6.03596 9.75195C6.11692 9.77544 6.19229 9.81506 6.25753 9.86843C6.32278 9.92179 6.37656 9.98781 6.41563 10.0625C6.99922 11.0711 7.91641 11.625 9 11.625C10.0836 11.625 11.0008 11.0703 11.5836 10.0625C11.6665 9.91891 11.803 9.81413 11.9631 9.7712C12.1233 9.72827 12.2939 9.75071 12.4375 9.83359C12.5811 9.91647 12.6859 10.053 12.7288 10.2131C12.7717 10.3733 12.7493 10.5439 12.6664 10.6875Z" fill="#212121"/>
</svg>
