<svg width="60" height="45" viewBox="0 0 60 45" fill="none" xmlns="http://www.w3.org/2000/svg">
<g clip-path="url(#clip0_419_482)">
<rect width="60" height="45" rx="2" fill="#F93939"/>
<path d="M54.2857 0H5.71429C2.55837 0 0 2.68629 0 6V39C0 42.3137 2.55837 45 5.71429 45H54.2857C57.4416 45 60 42.3137 60 39V6C60 2.68629 57.4416 0 54.2857 0Z" fill="#F93939"/>
<path fill-rule="evenodd" clip-rule="evenodd" d="M0 12H60V33H0V12Z" fill="#FFDA2C"/>
<path fill-rule="evenodd" clip-rule="evenodd" d="M25.7142 18.6661V26.2261C25.7142 28.3261 23.7942 30.0061 21.4285 30.0061H15.7142C13.3542 30.0001 11.4285 28.3111 11.4285 26.2201V18.6601C11.4285 16.9441 12.7085 15.5101 14.4685 15.0451C14.9999 13.4851 16.6342 14.8831 18.5713 14.8831C20.5199 14.8831 22.1428 13.4941 22.6742 15.0481C24.4285 15.5251 25.7142 16.9621 25.7142 18.6661Z" fill="#D4AF2C"/>
<path fill-rule="evenodd" clip-rule="evenodd" d="M25.7144 21H28.5715V30H25.7144V21ZM8.57153 21H11.4287V30H8.57153V21Z" fill="#CBCBCB"/>
<path fill-rule="evenodd" clip-rule="evenodd" d="M25.7144 27H28.5715V30H25.7144V27ZM8.57153 27H11.4287V30H8.57153V27Z" fill="#1A47B8"/>
<path fill-rule="evenodd" clip-rule="evenodd" d="M25.7144 18H28.5715V21H25.7144V18ZM8.57153 18H11.4287V21H8.57153V18Z" fill="#D4AF2C"/>
<path fill-rule="evenodd" clip-rule="evenodd" d="M14.2856 18H17.1428V22.5H14.2856V18ZM19.9999 24H22.8571V28.5H19.9999V24Z" fill="#AF010D"/>
<path fill-rule="evenodd" clip-rule="evenodd" d="M14.2856 24H17.1428V28.5H14.2856V24Z" fill="#FFDA2C"/>
<path fill-rule="evenodd" clip-rule="evenodd" d="M20 18H22.8571V22.5H20V18Z" fill="#AE6A3E"/>
<path fill-rule="evenodd" clip-rule="evenodd" d="M17.1428 18L14.2856 15H22.8571L19.9999 18H17.1428Z" fill="#AF010D"/>
<path fill-rule="evenodd" clip-rule="evenodd" d="M17.1428 12H20V15H17.1428V12Z" fill="#D4AF2C"/>
</g>
<rect x="0.5" y="0.5" width="59" height="44" rx="1.5" stroke="#EEEEEE"/>
<defs>
<clipPath id="clip0_419_482">
<rect width="60" height="45" rx="2" fill="white"/>
</clipPath>
</defs>
</svg>
