<?xml version="1.0" encoding="UTF-8"?>
<!DOCTYPE svg PUBLIC "-//W3C//DTD SVG 1.1//EN" "http://www.w3.org/Graphics/SVG/1.1/DTD/svg11.dtd">
<svg xmlns="http://www.w3.org/2000/svg" version="1.1" width="1025px" height="1534px" style="shape-rendering:geometricPrecision; text-rendering:geometricPrecision; image-rendering:optimizeQuality; fill-rule:evenodd; clip-rule:evenodd" xmlns:xlink="http://www.w3.org/1999/xlink">
<g><path style="opacity:0.995" fill="#fefffe" d="M 274.5,-0.5 C 275.5,-0.5 276.5,-0.5 277.5,-0.5C 355.476,80.8098 433.809,161.81 512.5,242.5C 591.191,161.81 669.524,80.8098 747.5,-0.5C 748.167,-0.5 748.833,-0.5 749.5,-0.5C 830.67,78.1704 911.67,157.004 992.5,236C 913.997,317.003 835.664,398.169 757.5,479.5C 846.191,565.525 935.191,651.191 1024.5,736.5C 1024.5,911.5 1024.5,1086.5 1024.5,1261.5C 933.472,1351.53 843.139,1442.19 753.5,1533.5C 752.833,1533.5 752.167,1533.5 751.5,1533.5C 671.868,1453.37 592.035,1373.37 512,1293.5C 432.5,1373 353,1452.5 273.5,1532C 272.5,1532.67 271.5,1532.67 270.5,1532C 180.659,1440.99 90.3261,1350.49 -0.5,1260.5C -0.5,1086.17 -0.5,911.833 -0.5,737.5C 88.6609,651.173 177.994,565.006 267.5,479C 189.015,397.681 110.348,316.515 31.5,235.5C 112.547,156.785 193.547,78.1179 274.5,-0.5 Z M 511.5,752.5 C 602.299,842.132 692.965,931.965 783.5,1022C 693.319,1111.68 602.986,1201.18 512.5,1290.5C 421.834,1201.17 331.501,1111.5 241.5,1021.5C 331.521,931.812 421.521,842.146 511.5,752.5 Z"/></g>
</svg>
