<svg width="24" height="25" viewBox="0 0 24 25" fill="none" xmlns="http://www.w3.org/2000/svg">
<path d="M16.8395 6.29639C17.2192 6.29639 17.533 6.57854 17.5827 6.94462L17.5895 7.04639V20.6642C17.5895 21.0784 17.2538 21.4142 16.8395 21.4142C16.4598 21.4142 16.146 21.132 16.0964 20.7659L16.0895 20.6642V7.04639C16.0895 6.63217 16.4253 6.29639 16.8395 6.29639Z" fill="#212121"/>
<path d="M20.3857 16.0393C20.6779 15.7457 21.1527 15.7446 21.4463 16.0368C21.7132 16.3025 21.7384 16.7191 21.5212 17.0132L21.4488 17.0975L17.371 21.1941C17.1045 21.4619 16.6862 21.4862 16.3921 21.2672L16.3079 21.1941L12.2301 17.0975C11.9379 16.8039 11.939 16.329 12.2326 16.0368C12.4994 15.7712 12.9162 15.7479 13.2093 15.9664L13.2932 16.0393L16.839 19.6012L20.3857 16.0393Z" fill="#212121"/>
<path d="M6.9111 3.58301C7.2908 3.58301 7.60459 3.86516 7.65426 4.23124L7.6611 4.33301V17.9508C7.6611 18.365 7.32532 18.7008 6.9111 18.7008C6.53141 18.7008 6.21761 18.4186 6.16795 18.0526L6.1611 17.9508V4.33301C6.1611 3.91879 6.49689 3.58301 6.9111 3.58301Z" fill="#212121"/>
<path d="M6.37966 3.80342C6.64618 3.53566 7.06443 3.51132 7.35854 3.73039L7.44277 3.80342L11.5205 7.90008C11.8128 8.19365 11.8117 8.66852 11.5181 8.96074C11.2512 9.22639 10.8345 9.24963 10.5414 9.0311L10.4574 8.95829L6.91099 5.39519L3.36499 8.95829C3.09934 9.22517 2.68273 9.25034 2.38862 9.03316L2.30433 8.96074C2.03745 8.69509 2.01228 8.27848 2.22946 7.98437L2.30188 7.90008L6.37966 3.80342Z" fill="#212121"/>
</svg>
