<svg width="16" height="16" viewBox="0 0 16 16" fill="none" xmlns="http://www.w3.org/2000/svg">
<mask id="mask0_190_7955" style="mask-type:luminance" maskUnits="userSpaceOnUse" x="1" y="2" width="14" height="14">
<path fill-rule="evenodd" clip-rule="evenodd" d="M1.33334 2H14.9817V15.0007H1.33334V2Z" fill="white"/>
</mask>
<g mask="url(#mask0_190_7955)">
<path fill-rule="evenodd" clip-rule="evenodd" d="M2.54913 8.08208C3.4838 10.9901 7.17646 13.3414 8.1578 13.9234C9.14246 13.3354 12.8618 10.9581 13.7665 8.08475C14.3605 6.22741 13.8091 3.87475 11.6185 3.16875C10.5571 2.82808 9.31913 3.03541 8.46446 3.69675C8.2858 3.83408 8.0378 3.83675 7.8578 3.70075C6.95246 3.02008 5.7698 2.82075 4.6918 3.16875C2.50446 3.87408 1.95513 6.22675 2.54913 8.08208ZM8.15846 15.0007C8.0758 15.0007 7.9938 14.9807 7.91913 14.9401C7.71046 14.8261 2.79513 12.1167 1.59713 8.38741C1.59646 8.38741 1.59646 8.38675 1.59646 8.38675C0.844465 6.03875 1.6818 3.08808 4.38513 2.21675C5.65446 1.80608 7.0378 1.98675 8.15646 2.69275C9.24046 2.00741 10.6805 1.81808 11.9245 2.21675C14.6305 3.08941 15.4705 6.03941 14.7191 8.38675C13.5598 12.0734 8.60846 14.8234 8.39846 14.9387C8.3238 14.9801 8.24113 15.0007 8.15846 15.0007Z" fill="white"/>
</g>
<path fill-rule="evenodd" clip-rule="evenodd" d="M12.1025 7.08335C11.8445 7.08335 11.6258 6.88535 11.6045 6.62401C11.5605 6.07601 11.1938 5.61335 10.6718 5.44468C10.4085 5.35935 10.2645 5.07735 10.3491 4.81535C10.4351 4.55268 10.7145 4.41001 10.9785 4.49268C11.8871 4.78668 12.5238 5.59135 12.6018 6.54268C12.6238 6.81801 12.4191 7.05935 12.1438 7.08135C12.1298 7.08268 12.1165 7.08335 12.1025 7.08335Z" fill="white"/>
</svg>
