<svg width="16" height="21" viewBox="0 0 16 21" fill="none" xmlns="http://www.w3.org/2000/svg">
<path fill-rule="evenodd" clip-rule="evenodd" d="M7.8889 11.1185H7.92089C10.8489 11.1185 13.2299 8.73751 13.2299 5.80951C13.2299 2.88151 10.8489 0.499512 7.92089 0.499512C4.99189 0.499512 2.60989 2.88151 2.60989 5.80651C2.59989 8.72651 4.9669 11.1095 7.8889 11.1185ZM4.03789 5.80951C4.03789 3.66851 5.77989 1.92751 7.92089 1.92751C10.0609 1.92751 11.8019 3.66851 11.8019 5.80951C11.8019 7.94951 10.0609 9.69151 7.92089 9.69151H7.89189C5.75989 9.68351 4.03089 7.94351 4.03789 5.80951Z" fill="#212121"/>
<path fill-rule="evenodd" clip-rule="evenodd" d="M-0.00012207 16.6728C-0.00012207 20.3699 5.96188 20.3699 7.92088 20.3699C11.3199 20.3699 15.8399 19.9888 15.8399 16.6929C15.8399 12.9958 9.87988 12.9958 7.92088 12.9958C4.52088 12.9958 -0.00012207 13.3769 -0.00012207 16.6728ZM1.49988 16.6728C1.49988 15.2278 3.65988 14.4958 7.92088 14.4958C12.1809 14.4958 14.3399 15.2348 14.3399 16.6929C14.3399 18.1378 12.1809 18.8699 7.92088 18.8699C3.65988 18.8699 1.49988 18.1308 1.49988 16.6728Z" fill="#212121"/>
</svg>
