<svg width="28" height="28" viewBox="0 0 28 28" fill="none" xmlns="http://www.w3.org/2000/svg">
<mask id="mask0_312_3836" style="mask-type:luminance" maskUnits="userSpaceOnUse" x="2" y="5" width="19" height="19">
<path fill-rule="evenodd" clip-rule="evenodd" d="M2.33362 5.83362H20.4173V23.9185H2.33362V5.83362Z" fill="white"/>
</mask>
<g mask="url(#mask0_312_3836)">
<path fill-rule="evenodd" clip-rule="evenodd" d="M7.98858 7.58519C7.47641 7.58519 7.14624 7.58519 7.08908 7.58752C6.22808 7.62369 5.43358 7.98886 4.86074 8.61419C4.32641 9.19869 4.05108 9.94536 4.08724 10.72C4.08724 14.0952 4.08841 19.1609 4.09658 19.4385C4.22958 21.0544 5.74391 22.2899 7.47758 22.1569C10.6859 22.1615 15.4389 22.172 15.6617 22.1639C16.5192 22.1289 17.3149 21.7649 17.8877 21.1407C18.4232 20.5585 18.6986 19.8119 18.6647 19.0407C18.6636 19.0279 18.6636 19.015 18.6636 19.0022C18.6647 15.6655 18.6647 10.6034 18.6566 10.3315C18.5247 8.70752 17.0034 7.45686 15.2604 7.59336C12.8501 7.58986 9.56124 7.58519 7.98858 7.58519ZM7.17074 23.9185C4.70441 23.9197 2.55308 22.0297 2.35008 19.5505C2.34658 19.5027 2.33491 19.3569 2.33841 10.7597C2.28241 9.55686 2.71874 8.36219 3.57041 7.43236C4.45941 6.46169 5.68558 5.89586 7.02374 5.83869C7.18591 5.82702 12.7952 5.84102 15.1974 5.84569C17.8224 5.66136 20.1919 7.60969 20.4031 10.2242C20.4124 10.3514 20.4159 13.2972 20.4136 18.9847C20.4626 20.2167 20.0239 21.4032 19.1769 22.3249C18.2867 23.2944 17.0594 23.8579 15.7224 23.9127C15.5591 23.9244 9.94741 23.9092 7.54174 23.9045C7.41808 23.9139 7.29441 23.9185 7.17074 23.9185Z" fill="#212121"/>
</g>
<path fill-rule="evenodd" clip-rule="evenodd" d="M24.2883 21.4075C23.7622 21.4075 23.243 21.2267 22.8148 20.8755L18.987 17.7302C18.6137 17.4233 18.56 16.8715 18.8668 16.4982C19.1725 16.126 19.7243 16.07 20.0977 16.378L23.9243 19.5233C24.1822 19.7333 24.4412 19.647 24.5415 19.598C24.6418 19.5513 24.874 19.4055 24.874 19.0742L24.888 10.5003C24.8892 10.169 24.6558 10.0232 24.5555 9.97532C24.4563 9.92865 24.1938 9.84115 23.9383 10.0512L20.0965 13.1953C19.7208 13.5022 19.1713 13.4473 18.8657 13.0717C18.5588 12.6983 18.6148 12.1477 18.9882 11.842L22.83 8.69665C23.5347 8.11915 24.4832 8.00599 25.3057 8.39449C26.1282 8.78532 26.6392 9.59265 26.638 10.5027L26.624 19.0765C26.6228 19.9865 26.1107 20.7938 25.2893 21.1812C24.9673 21.334 24.6267 21.4075 24.2883 21.4075Z" fill="#212121"/>
</svg>
