<svg width="49" height="48" viewBox="0 0 49 48" fill="none" xmlns="http://www.w3.org/2000/svg">
<path d="M0.75 24C0.75 10.7452 11.4952 0 24.75 0C38.0048 0 48.75 10.7452 48.75 24C48.75 37.2548 38.0048 48 24.75 48C11.4952 48 0.75 37.2548 0.75 24Z" fill="#2b7c9a"/>
<path fill-rule="evenodd" clip-rule="evenodd" d="M13.75 24C13.75 17.928 18.667 13 24.75 13C30.822 13 35.75 17.928 35.75 24C35.75 30.083 30.822 35 24.75 35C18.667 35 13.75 30.083 13.75 24ZM27.203 26.013L28.985 20.381C29.106 19.996 28.754 19.633 28.369 19.754L22.737 21.514C22.506 21.591 22.319 21.767 22.253 21.998L20.493 27.641C20.372 28.015 20.735 28.378 21.109 28.257L26.719 26.497C26.95 26.431 27.137 26.244 27.203 26.013Z" fill="white"/>
</svg>
